<?xml version="1.0" standalone="no"?>
<!DOCTYPE svg PUBLIC "-//W3C//DTD SVG 1.1//EN" "http://www.w3.org/Graphics/SVG/1.1/DTD/svg11.dtd" >
<svg xmlns="http://www.w3.org/2000/svg" xmlns:xlink="http://www.w3.org/1999/xlink" version="1.1">
<metadata></metadata>
<defs>
<font id="quattrocento_sansregular" horiz-adv-x="1314" >
<font-face units-per-em="2048" ascent="1638" descent="-410" />
<missing-glyph horiz-adv-x="501" />
<glyph unicode="&#xfb01;" horiz-adv-x="1071" d="M209 846h-158v76l158 18q0 198 27 312t71 173q45 64 102 83q54 18 107 18q103 0 184 -34q82 -34 138 -69l-70 -123q-100 62 -156 89q-63 30 -123 30q-45 0 -71 -19t-41 -63q-16 -46 -20 -110q-5 -75 -5 -162v-123h221v-96h-221v-846h-143v846zM915 0h-143v942h143v-942z " />
<glyph unicode="&#xfb02;" horiz-adv-x="1099" d="M209 846h-158v76l158 18q0 117 11 190q12 82 30 138q17 54 40 95q21 37 44 62q49 58 104 80q53 21 101 21q31 0 53 -1q33 -1 75 -6q37 -4 91 -17q55 -13 98 -29l72 43v-1516h-144v1362q-56 28 -133 43q-71 14 -151 14q-34 0 -61 -18t-47 -60q-20 -41 -30 -108 q-10 -64 -10 -168v-123h221v-96h-221v-846h-143v846z" />
<glyph horiz-adv-x="0" />
<glyph unicode="&#xd;" horiz-adv-x="501" />
<glyph horiz-adv-x="0" />
<glyph horiz-adv-x="0" />
<glyph unicode=" "  horiz-adv-x="501" />
<glyph unicode="&#x09;" horiz-adv-x="501" />
<glyph unicode="&#xa0;" horiz-adv-x="501" />
<glyph unicode="!" horiz-adv-x="528" d="M170 72q0 37 28 68q27 30 68 30q37 0 67 -30q29 -29 29 -68q0 -41 -29 -67q-31 -28 -67 -28q-40 0 -68 28t-28 67zM215 307l-49 1090h199l-54 -1090h-96z" />
<glyph unicode="&#x22;" horiz-adv-x="684" d="M164 1057l-43 442h166l-49 -442h-74zM444 1057l-43 442h166l-49 -442h-74z" />
<glyph unicode="#" horiz-adv-x="1257" d="M934 913h248l-21 -106h-250l-53 -244h262l-20 -108h-264l-97 -455h-131l97 455h-259l-96 -455h-131l96 455h-237l20 108h240l53 244h-252l21 106h254l90 426h131l-90 -426h258l90 426h131zM469 563h258l53 244h-258z" />
<glyph unicode="$" horiz-adv-x="1083" d="M614 1360q91 -6 170 -27q83 -22 140 -49l-43 -158q-51 45 -124 68t-143 29v-449q66 -22 142 -55q68 -29 124 -78q52 -45 88 -115q33 -65 33 -166q0 -93 -30 -162q-29 -66 -84 -115q-53 -47 -124 -71q-72 -25 -149 -32v-177h-122v174q-122 5 -225 36q-101 31 -179 75 l43 150q72 -50 154 -87q78 -35 207 -40v530q-91 30 -155 61q-68 32 -117 77q-48 44 -74 103q-25 57 -25 138q0 82 27 143t78 103q49 40 118 63t148 29v178h122v-176zM844 332q0 52 -20 94t-51 73q-29 29 -73 55q-39 23 -86 42v-479q126 17 177 74q53 59 53 141zM270 1026 q0 -41 14 -72t40 -54q27 -24 68 -43q33 -15 100 -40v406q-103 -10 -163 -58q-59 -47 -59 -139z" />
<glyph unicode="%" horiz-adv-x="1675" d="M381 1362q69 0 128 -31q55 -29 94 -82q38 -52 59 -120q20 -66 20 -144q0 -77 -20 -143q-22 -72 -60 -123q-41 -55 -97 -85q-59 -32 -132 -32q-71 0 -127 30q-54 29 -92 81t-56 120q-18 69 -18 144q0 83 20 150q21 71 60 123t94 82t127 30zM375 694q50 0 88 23 q36 21 60 61q23 37 35 91q11 48 11 112q0 129 -47 209t-145 80q-101 0 -141 -79q-41 -80 -41 -202q0 -147 47 -221t133 -74zM428 -49h-133l948 1464h133zM1298 745q71 0 128 -30t95 -82q37 -50 58 -120q20 -66 20 -144t-20 -144q-22 -74 -59 -123q-40 -54 -98 -85t-132 -31 q-73 0 -127 29t-92 81q-37 50 -55 120q-19 73 -19 144q0 80 21 151q22 73 59 123q39 52 94 82q54 29 127 29zM1292 78q51 0 88 22q36 22 61 62t35 91q11 48 11 112q0 128 -47 208t-146 80q-101 0 -141 -79q-41 -80 -41 -201q0 -147 47 -221t133 -74z" />
<glyph unicode="&#x26;" horiz-adv-x="1435" d="M1370 874v-126l-274 -25q63 -117 63 -242q0 -133 -69 -250l225 -231h-172l-131 133q-72 -71 -175 -115q-102 -43 -235 -43q-116 0 -206 32q-87 31 -148 86q-58 52 -89 124q-30 69 -30 143q0 59 17 114q19 62 52 112q37 56 86 98q55 47 119 74q-57 65 -92 139 q-32 67 -32 160q0 77 23 132t66 95q41 38 97 58q57 20 117 20q70 0 142 -24q79 -26 142 -66l-41 -146q-48 46 -112 74q-67 29 -127 29q-68 0 -116 -42t-48 -140q0 -67 27 -123q29 -60 77 -109l467 -483q33 78 33 157q0 65 -17 116q-19 56 -51 106l-102 -9v97zM621 111 q100 0 172 31q74 32 127 85l-426 437q-97 -33 -153 -109q-56 -75 -56 -176q0 -66 25 -115q25 -48 70 -84q43 -34 105 -52q58 -17 136 -17z" />
<glyph unicode="'" horiz-adv-x="403" d="M164 1057l-43 442h166l-49 -442h-74z" />
<glyph unicode="(" horiz-adv-x="636" d="M594 1552q-85 -96 -142 -192q-59 -100 -96 -206q-36 -104 -53 -227q-16 -116 -16 -257q0 -91 7 -186q7 -98 38 -215q29 -111 92 -235t168 -247l-76 -27q-197 176 -305 412q-109 238 -109 498q0 259 109 495q108 233 305 414z" />
<glyph unicode=")" horiz-adv-x="636" d="M121 1579q197 -181 305 -414q109 -236 109 -495q0 -260 -109 -498q-108 -236 -305 -412l-76 27q105 123 168 247t92 235q31 117 38 215q7 95 7 186q0 141 -16 257q-17 123 -53 227q-37 106 -96 206q-57 96 -142 192z" />
<glyph unicode="*" horiz-adv-x="899" d="M485 1163l222 166l67 -119l-252 -110l252 -109l-65 -117l-224 162l31 -270h-133l29 270l-222 -162l-65 117l252 109l-252 110l68 119l219 -166l-29 275h135z" />
<glyph unicode="+" horiz-adv-x="1017" d="M561 543h352v-107h-352v-352h-106v352h-351v107h351v331h106v-331z" />
<glyph unicode="," horiz-adv-x="497" d="M139 -160l80 150h-51v184h162v-215l-150 -158z" />
<glyph unicode="-" horiz-adv-x="995" d="M844 543v-107h-692v107h692z" />
<glyph unicode="." horiz-adv-x="481" d="M145 72q0 38 27 68t68 30q38 0 68 -30t30 -68q0 -40 -30 -67q-31 -28 -68 -28q-40 0 -68 28q-27 27 -27 67z" />
<glyph unicode="/" horiz-adv-x="868" d="M227 -117h-153l569 1555h154z" />
<glyph unicode="0" horiz-adv-x="1329" d="M666 1362q131 0 232 -55t171 -151t106 -220q35 -121 35 -262q0 -140 -36 -261q-38 -127 -108 -224q-70 -96 -175 -155q-106 -59 -240 -59q-132 0 -232 56t-165 149q-64 92 -99 218q-34 123 -34 261q0 148 37 274q38 130 106 223q70 96 171 151t231 55zM655 111 q101 0 174 43q77 46 121 118q48 79 70 178q22 100 22 218q0 129 -23 227q-24 103 -72 176q-49 75 -120 115q-73 41 -168 41q-99 0 -169 -40t-114 -113t-65 -173q-20 -96 -20 -221q0 -281 95 -426q94 -143 269 -143z" />
<glyph unicode="1" horiz-adv-x="649" d="M446 0h-153v1077l-197 -94l-45 143l395 226v-1352z" />
<glyph unicode="2" horiz-adv-x="1042" d="M115 1262q34 18 88 38q53 19 101 33q49 14 107 22q50 7 103 7q85 0 162 -25q74 -24 126 -67q52 -44 81 -105q28 -60 28 -135q0 -114 -63 -225q-59 -104 -159 -220q-86 -99 -208 -220q-108 -107 -211 -222h656v-143h-830v143q90 116 205 233q105 107 211 222 q95 104 164 215q65 105 65 215q0 44 -11 77q-12 36 -39 63q-28 28 -71 43q-46 16 -110 16q-49 0 -95 -7q-55 -8 -100 -22q-46 -14 -92 -33q-41 -17 -71 -39z" />
<glyph unicode="3" horiz-adv-x="1095" d="M158 1262q27 17 79 38q40 17 91 33q42 14 94 22q43 7 88 7q181 0 293 -89q110 -88 110 -263q0 -88 -56 -159q-59 -74 -138 -116q122 -40 191 -123t69 -217q0 -83 -31 -162q-29 -74 -94 -133q-62 -56 -158 -91q-93 -34 -221 -34q-119 0 -220 34q-104 35 -179 93l41 138 q74 -62 159 -95q87 -34 193 -34q167 0 253 76q87 77 87 225q0 116 -79 185t-265 69h-55v116h63q129 0 200 66q70 66 70 178q0 90 -49 145q-50 56 -172 56q-44 0 -94 -8q-40 -6 -90 -22q-41 -13 -81 -32q-39 -19 -62 -39z" />
<glyph unicode="4" horiz-adv-x="1040" d="M940 430h-141v-430h-154v430h-582v143l572 779h164v-779h141v-143zM645 573v555l-407 -555h407z" />
<glyph unicode="5" horiz-adv-x="1101" d="M158 649l75 713h695v-143h-566l-53 -437q62 15 133 24q69 9 129 9q93 0 171 -25q79 -25 136 -75q56 -48 88 -122q31 -71 31 -167q0 -90 -30 -172q-29 -79 -94 -143q-64 -63 -156 -99q-93 -37 -221 -37q-120 0 -221 34q-104 35 -179 93l43 144q79 -62 160 -98 q83 -37 199 -37q155 0 243 76t88 225q0 57 -15 105q-15 47 -53 82q-37 34 -99 52q-65 19 -154 19q-65 0 -148 -13q-75 -12 -143 -39z" />
<glyph unicode="6" horiz-adv-x="1128" d="M281 670q24 45 61 73q39 30 82 47q39 16 94 24q46 7 98 7q129 0 209 -44q81 -44 124 -107q45 -65 61 -136q16 -70 16 -128q0 -74 -24 -151q-25 -79 -75 -139q-53 -63 -135 -102t-200 -39q-128 0 -217 45q-88 45 -143 130q-54 84 -78 200q-25 122 -25 262q0 142 24 276 q25 137 81 238q58 105 157 169q100 65 246 65q37 0 76 -4q46 -5 88 -16q53 -14 87 -30q44 -20 73 -48l-35 -136q-70 58 -148 79q-82 22 -139 22q-106 0 -177 -44q-70 -43 -113 -115q-40 -67 -59 -160q-18 -88 -18 -177v-30q0 -7 2 -29zM866 408q0 56 -13 107q-13 52 -43 92 q-30 41 -80 65q-49 24 -124 24q-153 0 -225 -86t-72 -215q0 -135 74 -215t209 -80q128 0 201 81q73 80 73 227z" />
<glyph unicode="7" horiz-adv-x="935" d="M164 0q-2 24 -2 40v40q0 129 54 282q56 157 138 309q83 152 188 297q108 148 199 251h-659v143h829v-143q-102 -102 -204 -249q-104 -150 -185 -306t-132 -314q-50 -155 -50 -268v-43q0 -15 2 -39h-178z" />
<glyph unicode="8" horiz-adv-x="1142" d="M776 741q118 -27 183 -123q65 -97 65 -233q0 -86 -27 -161q-27 -76 -83 -130q-57 -56 -142 -87q-87 -32 -203 -32q-125 0 -209 34q-89 36 -139 90q-55 60 -78 130q-24 73 -24 152q0 136 65 229q66 94 183 129v9q-73 27 -126 100q-55 75 -55 186q0 148 101 238t284 90 q181 0 283 -87t102 -235q0 -109 -52 -183t-128 -107v-9zM854 371q0 57 -15 111q-15 53 -51 97q-34 41 -89 67t-130 26q-77 0 -132 -26q-54 -25 -88 -67q-33 -41 -49 -97q-15 -54 -15 -111q0 -129 72 -200q73 -71 212 -71t212 71t73 200zM788 1026q0 86 -48 146 q-49 61 -171 61q-121 0 -170 -58t-49 -149q0 -102 57 -167q57 -64 162 -64q106 0 163 64q56 63 56 167z" />
<glyph unicode="9" horiz-adv-x="1130" d="M850 666q-24 -45 -62 -74t-81 -46t-95 -25q-46 -7 -98 -7q-129 0 -209 44q-79 43 -124 108q-43 63 -60 136q-17 74 -17 128q0 74 24 150q25 78 76 140q51 61 135 101q83 39 200 39q129 0 217 -45t142 -129q56 -87 79 -202q24 -119 24 -261q0 -148 -23 -276 q-24 -134 -82 -238q-58 -105 -157 -169q-100 -65 -245 -65q-28 0 -76 5q-52 5 -88 15q-48 13 -87 31q-44 20 -73 48l35 135q71 -58 147 -79q78 -21 140 -21q106 0 177 44q70 43 112 114q42 70 60 160q17 84 17 177v30q0 8 -2 30zM264 928q0 -54 14 -108q13 -52 43 -92 t79 -64q52 -25 124 -25q154 0 226 86q71 84 71 215q0 136 -73 215q-74 80 -209 80q-127 0 -201 -81q-74 -82 -74 -226z" />
<glyph unicode=":" horiz-adv-x="495" d="M152 72q0 39 26 68q27 30 68 30q38 0 68 -30t30 -68q0 -40 -30 -67q-31 -28 -68 -28q-40 0 -68 28q-26 26 -26 67zM152 836q0 40 26 67q27 29 68 29q37 0 68 -29q30 -28 30 -67q0 -42 -30 -69q-31 -28 -68 -28q-40 0 -68 28q-26 26 -26 69z" />
<glyph unicode=";" horiz-adv-x="520" d="M170 836q0 38 27 67t67 29q38 0 69 -29q29 -28 29 -67q0 -43 -29 -69q-31 -28 -69 -28q-39 0 -67 28q-27 27 -27 69zM154 -160l79 150h-51v184h162v-215l-149 -158z" />
<glyph unicode="&#x3c;" horiz-adv-x="835" d="M295 487l405 -272l-36 -131l-586 403v11l584 397l36 -129l-403 -268v-11z" />
<glyph unicode="=" horiz-adv-x="1003" d="M848 387v-106h-692v106h692zM848 698v-106h-692v106h692z" />
<glyph unicode="&#x3e;" horiz-adv-x="835" d="M541 498l-404 268l37 129l584 -397v-11l-586 -403l-37 131l406 272v11z" />
<glyph unicode="?" horiz-adv-x="843" d="M281 74q0 41 27 68q28 28 67 28q37 0 68 -28q30 -27 30 -68q0 -39 -30 -68q-31 -29 -68 -29q-40 0 -67 29q-27 28 -27 68zM82 1305q54 42 137 71q84 29 160 29q79 0 148 -25q68 -25 113 -67q47 -44 71 -105q24 -62 24 -135q0 -62 -21 -116q-20 -52 -56 -108 q-58 -90 -71 -110q-40 -59 -72 -119t-56 -141q-23 -78 -23 -170h-131q0 103 21 183q22 82 52 144q35 72 68 118q41 59 69 103q30 47 52 102q21 53 21 116q0 83 -52 139q-53 58 -159 58q-30 0 -70 -8q-30 -6 -71 -22q-38 -15 -66 -33q-31 -20 -51 -40z" />
<glyph unicode="@" horiz-adv-x="1480" d="M903 717q-12 12 -51 12q-69 0 -116 -37q-50 -39 -79 -91q-30 -53 -45 -118q-14 -59 -14 -114q0 -69 18 -100t48 -31q26 0 56 21q29 20 56 55q27 34 48 75q23 45 30 80zM1184 -47q-24 -21 -65 -46q-46 -29 -105 -53q-60 -25 -137 -43q-76 -18 -160 -18q-123 0 -232 41 q-106 40 -190 116q-82 75 -130 181t-48 238q0 116 42 248q43 134 130 245q91 115 224 187q136 73 325 73q143 0 248 -45q108 -46 175 -116t101 -162q33 -90 33 -183q0 -90 -30 -174t-85 -148q-56 -65 -132 -104q-75 -38 -171 -38q-51 0 -79 11q-31 12 -45 31q-16 20 -20 47 q-6 36 -6 60q-36 -71 -87 -111q-52 -40 -105 -40q-32 0 -62 15t-55 46q-25 32 -40 77q-15 46 -15 107q0 91 35 166q35 74 91 126q57 53 126 81q70 29 139 29q48 0 108 -17q58 -16 93 -51l-76 -364q-5 -23 -6 -40q-2 -24 -2 -32q0 -28 12 -43q11 -14 47 -14q54 0 97 31 q45 33 76 84t49 120q18 67 18 137q0 73 -25 151q-23 73 -77 134q-51 58 -134 96q-81 37 -198 37q-146 0 -256 -58q-112 -59 -185 -153q-74 -95 -111 -211q-38 -119 -38 -235q0 -128 40 -217q42 -92 107 -149q66 -57 157 -85q88 -27 187 -27q84 0 156 18q75 19 129 43 q58 26 98 54q47 33 64 49v-102z" />
<glyph unicode="A" d="M1331 0h-174l-199 455h-604l-180 -455h-164l541 1352h186zM412 598h483l-254 582z" />
<glyph unicode="B" horiz-adv-x="1144" d="M203 1352q53 4 153 7q88 3 162 3q181 0 293 -89q111 -89 111 -263q0 -84 -34 -149q-35 -67 -106 -113q123 -41 193 -130q69 -89 69 -223q0 -85 -30 -162q-29 -74 -94 -133q-62 -56 -158 -91q-93 -34 -221 -34q-96 0 -187 8q-98 9 -151 17v1352zM535 111q166 0 252 76 q87 77 87 225q0 117 -78 185q-80 69 -266 69q-60 0 -89 -1q-58 -2 -85 -3v-545q80 -6 179 -6zM481 782q129 0 200 66t71 178q0 89 -50 145t-172 56q-60 0 -89 -1q-58 -2 -85 -3v-439q38 -2 61 -2h64z" />
<glyph unicode="C" d="M1161 1126q-66 44 -162 72q-98 29 -219 29q-138 0 -231 -40q-95 -41 -153 -112q-59 -72 -84 -173q-25 -100 -25 -224q0 -280 123 -424q122 -143 366 -143q134 0 238 36q106 37 174 91l41 -138q-83 -50 -198 -87q-117 -38 -261 -38q-167 0 -291 56t-204 149t-119 218 q-39 124 -39 264q0 146 43 272q44 129 128 222q87 97 211 151q125 55 294 55q110 0 221 -24q112 -24 190 -64z" />
<glyph unicode="D" horiz-adv-x="1441" d="M203 1352h10q73 3 213 7q114 3 223 3q144 0 265 -41q119 -40 204 -113q109 -100 158 -239q49 -140 49 -307q0 -140 -39 -264q-39 -123 -120 -218q-80 -94 -203 -149q-124 -56 -291 -56q-138 0 -261 8q-138 9 -208 17v1352zM662 1227q-108 0 -161 -1q-99 -2 -145 -5v-1098 q129 -12 310 -12q244 0 366 143q123 144 123 424q0 120 -26 224q-26 102 -83 173q-58 71 -153 112q-93 40 -231 40z" />
<glyph unicode="E" horiz-adv-x="1069" d="M985 0h-782v1352h741v-144h-588v-420h451v-143h-451v-502h629v-143z" />
<glyph unicode="F" horiz-adv-x="983" d="M784 645h-428v-645h-153v1352h731v-144h-578v-420h428v-143z" />
<glyph unicode="G" horiz-adv-x="1376" d="M1243 113q-94 -63 -210 -100q-120 -38 -263 -38q-167 0 -291 56t-204 149t-119 218q-39 124 -39 264q0 146 43 272q44 129 128 222q87 97 211 151q125 55 294 55q119 0 231 -24q115 -24 201 -64l-43 -148q-66 44 -169 72q-105 29 -233 29q-138 0 -231 -40 q-95 -41 -153 -112q-59 -72 -84 -173q-25 -100 -25 -224q0 -280 123 -424q122 -143 366 -143q90 0 169 18q76 17 145 47v381h153v-444z" />
<glyph unicode="H" horiz-adv-x="1441" d="M356 768h729v584h154v-1352h-154v625h-729v-625h-153v1352h153v-584z" />
<glyph unicode="I" horiz-adv-x="559" d="M356 0h-153v1352h153v-1352z" />
<glyph unicode="J" horiz-adv-x="557" d="M356 207q0 -109 -21 -204q-20 -91 -66 -167q-43 -71 -110 -114q-64 -41 -159 -41l-29 112q81 0 127 39q48 40 70 99q23 61 29 135q6 73 6 143v1143h153v-1145z" />
<glyph unicode="K" horiz-adv-x="1224" d="M356 713q60 41 104 78q34 28 105 96q106 104 203 220q103 123 188 245h177q-49 -72 -108 -147t-120 -147q-54 -63 -122 -138q-60 -66 -113 -119q-29 -29 -42 -41q-26 -24 -38 -35l627 -725h-191l-549 627l-121 -92v-535h-153v1352h153v-639z" />
<glyph unicode="L" horiz-adv-x="995" d="M961 0h-758v1352h153v-1209h605v-143z" />
<glyph unicode="M" horiz-adv-x="1726" d="M868 193l459 1159h197v-1352h-154v1022l-414 -1022h-184l-416 1024v-1024h-153v1352h207z" />
<glyph unicode="N" horiz-adv-x="1441" d="M356 1106v-1106h-153v1352h186l696 -1108v1108h154v-1352h-186z" />
<glyph unicode="O" horiz-adv-x="1548" d="M774 1362q161 0 283 -55t207 -151q83 -93 127 -220q43 -123 43 -262q0 -135 -42 -261q-43 -128 -127 -224t-211 -155t-294 -59q-162 0 -285 56t-201 149t-119 218q-40 123 -40 261q0 145 44 274q44 128 128 223q85 96 207 151t280 55zM764 111q135 0 228 43 q99 46 156 118q61 78 89 178q29 104 29 218q0 125 -30 227q-30 103 -90 176q-61 75 -155 115q-96 41 -223 41q-133 0 -223 -40q-93 -41 -150 -113t-84 -173q-26 -97 -26 -221q0 -282 123 -426q122 -143 356 -143z" />
<glyph unicode="P" horiz-adv-x="1083" d="M203 1352h8q50 3 145 7q80 3 152 3q108 0 201 -28q88 -27 154 -83q66 -57 101 -136t35 -187q0 -87 -28 -162t-86 -133q-55 -55 -147 -91q-87 -34 -208 -34q-98 0 -174 6v-514h-153v1352zM520 1227q-57 0 -85 -1q-37 -1 -79 -3v-574q74 -6 168 -6q152 0 229 77 q76 76 76 224q0 65 -16 116q-16 52 -52 89q-34 36 -95 57q-60 21 -146 21z" />
<glyph unicode="Q" horiz-adv-x="1554" d="M778 1362q161 0 283 -55t207 -151q83 -93 127 -220q43 -123 43 -262q0 -133 -40 -254q-41 -126 -119 -218q-82 -97 -198 -156q-122 -62 -276 -69q71 -7 140 -33q46 -17 138 -53q66 -26 142 -48q72 -21 149 -21q82 0 174 39l-39 -131q-39 -21 -77 -27q-39 -6 -74 -6 q-84 0 -168 29q-92 32 -159 62q-55 25 -149 62q-73 29 -141 29q-49 0 -118 -18t-134 -66l-28 96q53 41 117 62q57 19 122 24q-149 11 -256 70q-109 61 -181 152t-108 211q-36 118 -36 249q0 145 44 274q44 128 128 223q85 96 207 151t280 55zM772 111q133 0 226 43 q98 45 155 118q59 76 88 180q29 105 29 222q0 122 -30 224q-30 103 -91 174q-64 74 -156 114q-96 41 -225 41q-130 0 -220 -40q-92 -41 -149 -114q-57 -74 -84 -175q-26 -98 -26 -224q0 -279 124 -421t359 -142z" />
<glyph unicode="R" horiz-adv-x="1218" d="M203 1352q54 3 152 7q81 3 153 3q109 0 201 -26q91 -26 154 -74q65 -50 101 -122q35 -70 35 -167q0 -133 -73 -234q-74 -102 -228 -143l519 -596h-191l-506 578q-90 0 -164 6v-584h-153v1352zM520 1227q-57 0 -85 -1q-37 -1 -79 -3v-506q33 -4 79 -4h89q153 0 229 70 t76 206q0 107 -68 172q-69 66 -241 66z" />
<glyph unicode="S" horiz-adv-x="1128" d="M283 1026q0 -51 19 -85q18 -32 62 -60q43 -27 106 -51q60 -22 155 -54q68 -21 149 -56q74 -32 132 -78q59 -47 93 -115q35 -70 35 -167q0 -104 -41 -178t-108 -120q-64 -44 -156 -66q-89 -21 -182 -21q-134 0 -248 33t-199 80l43 150q39 -27 78 -51q38 -23 85 -40 q40 -14 102 -26q53 -10 127 -10q93 0 157 16q68 17 107 46q41 30 59 71q19 43 19 88q0 70 -33 118t-85 82q-55 36 -115 59q-42 16 -124 44q-90 29 -160 61q-71 33 -121 78q-52 47 -78 105q-28 62 -28 141q0 93 34 157q35 66 92 105q59 40 138 60q82 20 172 20q109 0 213 -23 t174 -55l-43 -158q-36 31 -76 49q-34 15 -93 30q-51 13 -95 17q-52 5 -88 5q-129 0 -204 -48q-74 -47 -74 -153z" />
<glyph unicode="T" horiz-adv-x="1091" d="M1055 1208h-432v-1208h-154v1208h-432v144h1018v-144z" />
<glyph unicode="U" horiz-adv-x="1409" d="M342 524q0 -221 97 -317t270 -96q171 0 270 96q98 95 98 317v828h144v-897q0 -98 -31 -188q-29 -85 -94 -151q-62 -64 -160 -102q-95 -37 -227 -37q-145 0 -243 37q-100 38 -161 102q-62 66 -89 151q-28 90 -28 188v897h154v-828z" />
<glyph unicode="V" horiz-adv-x="1318" d="M-14 1352h174l514 -1180l469 1180h164l-537 -1352h-195z" />
<glyph unicode="W" horiz-adv-x="2213" d="M1106 1118l-381 -1118h-195l-532 1352h174l455 -1157l395 1157h174l420 -1153l412 1153h163l-481 -1352h-194z" />
<glyph unicode="X" horiz-adv-x="1323" d="M655 584l-448 -584h-176l536 698l-506 654h183l422 -547l421 547h177l-510 -662l536 -690h-182z" />
<glyph unicode="Y" horiz-adv-x="1159" d="M-23 1352h183l428 -650l413 650h179l-523 -797v-555h-153v547z" />
<glyph unicode="Z" horiz-adv-x="1134" d="M1047 0h-959v143l754 1065h-723v144h897v-144l-754 -1065h785v-143z" />
<glyph unicode="[" horiz-adv-x="585" d="M512 -195h-328v1729h328v-86h-195v-1557h195v-86z" />
<glyph unicode="\" horiz-adv-x="864" d="M72 1438h149l570 -1555h-150z" />
<glyph unicode="]" horiz-adv-x="585" d="M74 1534h327v-1729h-327v86h194v1557h-194v86z" />
<glyph unicode="^" horiz-adv-x="712" d="M365 1378l225 -202l6 -15l-12 -39l-15 -6l-213 125l-213 -125l-14 6l-12 39l6 15l225 202h17z" />
<glyph unicode="_" horiz-adv-x="1001" d="M944 0v-106h-887v106h887z" />
<glyph unicode="`" horiz-adv-x="448" d="M420 1124l-412 158q-8 19 -8 39q0 28 18 49t54 23l370 -207l7 -15l-13 -41z" />
<glyph unicode="a" horiz-adv-x="1019" d="M758 0l-17 168h-8q-24 -39 -65 -74q-37 -32 -91 -61q-49 -27 -109 -42q-62 -16 -116 -16q-135 0 -202 79q-68 80 -68 198t59 186q62 71 146 105q85 34 181 45q90 10 167 10h92v25q0 77 -21 118q-21 40 -63 70q-36 23 -75 32q-41 9 -105 9q-85 0 -152 -23 q-69 -23 -127 -59l-32 123q137 80 327 80q74 0 144 -14q68 -14 118 -46q61 -38 95 -104q34 -67 34 -168v-641h-112zM395 96q81 0 178 54q94 52 154 153v191h-18q-70 0 -168 -7q-84 -6 -153 -30q-68 -24 -112 -71q-43 -46 -43 -126q0 -79 45 -122q44 -42 117 -42z" />
<glyph unicode="b" horiz-adv-x="1177" d="M666 -25q-131 0 -226 59q-94 58 -143 134h-8l-17 -168h-112v1516h143v-750q26 87 117 147q90 60 223 60q107 0 191 -41q81 -40 136 -110q56 -71 82 -160q27 -91 27 -193q0 -100 -25 -187q-26 -89 -77 -157q-52 -69 -129 -109q-79 -41 -182 -41zM649 96q79 0 131 33 q54 34 86 85q32 50 47 118q15 66 15 131q0 83 -22 158q-21 70 -60 122q-40 52 -96 80q-58 29 -127 29q-109 0 -196 -66t-124 -182v-301q59 -98 154 -152q96 -55 192 -55z" />
<glyph unicode="c" horiz-adv-x="1024" d="M895 770q-50 37 -135 63q-88 27 -176 27t-153 -31q-62 -30 -103 -81q-42 -53 -60 -118q-18 -66 -18 -138q0 -82 22 -154q22 -71 67 -129q43 -55 108 -88t151 -33q81 0 169 35q85 34 144 88l29 -133q-54 -36 -157 -70q-99 -33 -212 -33q-117 0 -207 41q-89 41 -148 110 q-58 68 -88 160t-30 193q0 96 28 188q27 88 87 157q59 68 152 109q90 40 221 40q95 0 192 -23q98 -23 152 -59z" />
<glyph unicode="d" horiz-adv-x="1177" d="M512 -25q-103 0 -182 41q-77 40 -129 109q-51 68 -77 157q-26 90 -26 187q0 98 28 193q26 89 82 160q55 70 136 110q84 41 191 41q137 0 225 -60q87 -59 114 -147v750h144v-1516h-113l-16 168h-8q-48 -75 -144 -134q-95 -59 -225 -59zM528 96q97 0 194 54q95 53 152 153 v301q-38 117 -123 182q-87 66 -196 66q-70 0 -128 -29q-55 -27 -95 -80q-41 -54 -61 -122q-21 -72 -21 -158q0 -69 14 -131q15 -68 47 -118q32 -51 86 -85q53 -33 131 -33z" />
<glyph unicode="e" horiz-adv-x="1058" d="M582 973q180 0 278 -91t98 -257q0 -39 -4 -71q-5 -37 -14 -52h-690v-21q0 -80 20 -149q20 -70 62 -127q40 -55 103 -88t149 -33q53 0 96 11q53 14 90 29q47 19 80 38q39 22 65 41l25 -117q-27 -16 -66 -36q-38 -19 -86 -36q-37 -13 -103 -27q-57 -12 -118 -12 q-115 0 -202 40q-88 40 -148 109t-90 159q-31 93 -31 188q0 99 32 192q31 91 93 160q62 70 153 110q90 40 208 40zM575 858q-133 0 -209 -71q-75 -71 -102 -177h559q2 14 2 19v18q0 52 -20 91q-21 40 -55 67q-33 26 -80 40q-43 13 -95 13z" />
<glyph unicode="f" horiz-adv-x="610" d="M209 846h-158v76l158 18q0 120 7 197q7 76 20 138q12 55 27 92q14 35 30 58q40 58 96 79q60 22 119 22q15 0 29 -1q31 -2 46 -4q22 -3 52 -11q29 -8 51 -19l-35 -121q-7 0 -28 7l-51 17q-31 10 -59 17q-34 8 -56 8q-31 0 -51 -17t-32 -57q-13 -43 -17 -106 q-5 -73 -5 -162v-135h221v-96h-221v-846h-143v846z" />
<glyph unicode="g" horiz-adv-x="1040" d="M289 291q-99 39 -142 124t-43 183q0 80 27 147t77 119q50 51 121 80q72 29 160 29q56 0 106 -10q53 -11 91 -31q74 1 161 10q65 6 140 27l10 -8l-14 -113l-10 -10l-187 8l-2 -6q54 -45 78 -113q25 -72 25 -135q0 -66 -26 -129q-25 -61 -75 -108q-49 -46 -121 -73 q-75 -28 -167 -28q-28 0 -39 1t-31 1q-43 -15 -64 -39q-22 -25 -22 -41q0 -20 28 -36q27 -15 89 -21l198 -21q67 -6 126 -27q57 -21 102 -56q42 -33 68 -82t26 -109q0 -59 -27 -122q-27 -62 -80 -108q-52 -44 -147 -73q-96 -29 -217 -29q-101 0 -187 22q-82 21 -140 59 q-55 36 -86 87q-29 48 -29 104q0 42 16 81q17 42 43 75q29 38 62 62q33 25 75 41v8q-84 39 -84 106q0 43 32 78q31 34 79 68v8zM498 356q56 0 101 20q46 21 75 51q31 32 47 75q16 42 16 90t-16 96t-48 89q-31 40 -79 65q-47 24 -109 24q-61 0 -103 -23q-45 -25 -74 -61 t-44 -82q-14 -42 -14 -90q0 -47 15 -92q15 -44 47 -81q31 -35 78 -58q48 -23 108 -23zM432 -10q-44 0 -87 -19q-39 -17 -70 -47q-29 -27 -47 -64q-17 -34 -17 -71q0 -77 83 -124q82 -46 224 -46q72 0 126 11q60 12 100 35q45 26 67 57q25 36 25 81q0 91 -100 132 q-98 40 -304 55z" />
<glyph unicode="h" horiz-adv-x="1116" d="M821 0v623q0 125 -55 177t-141 52q-54 0 -102 -16q-47 -16 -93 -49q-44 -32 -76 -77q-33 -47 -51 -106v-604h-143v1516h143v-750q27 86 116 146q90 61 226 61q65 0 124 -18t101 -56q44 -39 69 -102q26 -64 26 -156v-641h-144z" />
<glyph unicode="i" horiz-adv-x="462" d="M303 0h-143v942h143v-942zM129 1286q0 41 30 74t72 33q41 0 74 -33t33 -74q0 -43 -33 -73q-32 -29 -74 -29q-43 0 -72 29q-30 30 -30 73z" />
<glyph unicode="j" horiz-adv-x="462" d="M303 -6q0 -108 -19 -200q-19 -94 -59 -167q-39 -72 -98 -113q-60 -42 -137 -42q-33 0 -45 6l-33 119q14 -7 45 -7q71 0 111 40t61 100q22 62 26 131q5 80 5 135v946h143v-948zM129 1286q0 41 30 74t72 33q41 0 74 -33t33 -74q0 -43 -33 -73q-32 -29 -74 -29q-43 0 -72 29 q-30 30 -30 73z" />
<glyph unicode="k" horiz-adv-x="970" d="M545 610l401 -610h-164l-338 512l-141 -141v-371h-143v1516h143v-971l414 397h164z" />
<glyph unicode="l" horiz-adv-x="487" d="M315 0h-143v1516h143v-1516z" />
<glyph unicode="m" horiz-adv-x="1759" d="M813 0v623q0 125 -57 177q-56 52 -144 52q-103 0 -188 -65q-83 -64 -121 -183v-604h-143v942h112l17 -176h8q27 87 112 146q87 61 220 61q123 0 206 -54t105 -153q21 40 51 78q28 35 74 65q43 28 98 46t125 18q64 0 122 -18q60 -19 102 -56q44 -40 71 -102 q27 -63 27 -156v-641h-144v623q0 125 -57 177q-56 52 -143 52q-104 0 -189 -65q-83 -64 -121 -183v-604h-143z" />
<glyph unicode="n" horiz-adv-x="1116" d="M821 0v623q0 124 -55 176q-56 53 -141 53q-54 0 -102 -16q-47 -16 -93 -49q-44 -32 -76 -77q-33 -47 -51 -106v-604h-143v942h112l17 -176h8q27 86 119 146q93 61 229 61q65 0 124 -18t101 -56q44 -39 69 -102q26 -64 26 -156v-641h-144z" />
<glyph unicode="o" horiz-adv-x="1148" d="M573 973q125 0 215 -42t149 -113t86 -162q28 -95 28 -191q0 -98 -28 -190q-27 -87 -85 -155q-58 -67 -146 -106t-210 -39q-123 0 -216 41q-90 40 -151 110q-59 68 -88 159q-29 92 -29 190q0 99 29 191q28 88 87 158q58 69 148 109q89 40 211 40zM580 84q80 0 142 31 q59 29 100 83q42 54 59 120q18 69 18 145q0 79 -19 149t-61 126q-41 54 -103 87q-63 33 -149 33q-81 0 -143 -31q-57 -29 -98 -82q-41 -54 -58 -119q-18 -69 -18 -145q0 -79 19 -149q19 -71 60 -127t102 -88q63 -33 149 -33z" />
<glyph unicode="p" horiz-adv-x="1177" d="M666 973q103 0 182 -41q77 -40 129 -109t77 -156t25 -188t-27 -193q-26 -89 -82 -160q-55 -70 -136 -110q-84 -41 -191 -41q-137 0 -225 60t-115 147v-714h-143v1474h112l17 -176h8q24 38 60 75q35 37 83 66t104 47q60 19 122 19zM629 852q-98 0 -184 -53 q-84 -51 -142 -154v-301q17 -57 53 -104q34 -45 81 -78q45 -32 99 -49t105 -17q72 0 125 29t89 80t54 119q19 71 19 145t-18 143q-19 75 -54 123q-40 56 -93 85q-58 32 -134 32z" />
<glyph unicode="q" horiz-adv-x="1177" d="M506 973q64 0 126 -19q55 -17 104 -47q47 -28 83 -65q40 -40 62 -76h8l16 176h113v-1474h-144v714q-27 -88 -114 -147q-88 -60 -225 -60q-107 0 -191 41q-81 40 -136 110q-56 71 -82 160q-28 95 -28 191q0 97 26 189q25 88 77 157q53 70 127 109q77 41 178 41zM549 852 q-76 0 -134 -32q-53 -29 -93 -85q-36 -51 -55 -123q-17 -65 -17 -143q0 -77 18 -145q18 -66 55 -119q36 -51 89 -80t125 -29q51 0 105 17q52 16 98 49t81 78q36 47 53 104v301q-58 103 -142 154q-86 53 -183 53z" />
<glyph unicode="r" horiz-adv-x="731" d="M668 791q-28 15 -66 29q-30 11 -63 11q-41 0 -78 -22q-39 -23 -68 -61q-29 -37 -54 -91q-24 -51 -36 -106v-551h-143v942h112l17 -207h8q16 51 38 90q25 45 57 76q34 33 77 52q45 20 98 20q37 0 82 -14q46 -14 62 -33z" />
<glyph unicode="s" horiz-adv-x="903" d="M436 858q-99 0 -142 -36q-44 -36 -44 -97q0 -21 6 -43t24 -42t47 -37t79 -28l145 -32q84 -18 138 -50q53 -31 81 -69q29 -38 38 -75t9 -70q0 -65 -25 -119q-26 -56 -74 -97q-46 -39 -118 -64q-69 -24 -156 -24q-107 0 -200 32q-92 32 -148 71l37 133q74 -68 164 -98 q93 -31 162 -31q102 0 155 50q54 51 54 106q0 10 -2 42q-1 23 -17 48q-17 27 -43 46q-30 22 -82 34l-196 49q-69 17 -111 43q-43 27 -67 58q-25 32 -35 68q-11 38 -11 72q0 124 94 200q93 75 248 75q76 0 172 -22q93 -21 156 -62l-39 -123q-40 34 -122 63t-177 29z" />
<glyph unicode="t" horiz-adv-x="641" d="M203 846h-158v76l162 20l31 285h108v-285h221v-96h-221v-653q0 -65 20 -87q19 -20 60 -20q49 0 84 14q38 15 65 35l29 -108q-35 -17 -91 -33q-59 -17 -124 -17q-62 0 -102 19q-37 18 -56 49q-18 31 -23 69q-5 42 -5 74v658z" />
<glyph unicode="u" horiz-adv-x="1114" d="M293 942v-623q0 -63 15 -106t41 -69q23 -23 62 -36q36 -12 78 -12q49 0 102 16q47 14 93 46q42 29 76 75q33 45 51 105v604h143v-942h-112l-17 176h-8q-27 -86 -119 -143q-93 -58 -229 -58q-64 0 -124 17q-57 16 -101 54t-69 100t-25 155v641h143z" />
<glyph unicode="v" horiz-adv-x="1067" d="M625 0h-183l-428 942h156l367 -807l366 807h150z" />
<glyph unicode="w" horiz-adv-x="1683" d="M1294 0h-194l-256 737l-271 -737h-194l-346 942h151l295 -803l295 803h152l276 -803l314 803h145z" />
<glyph unicode="x" horiz-adv-x="1058" d="M530 584l297 358h174l-387 -457l408 -485h-174l-322 383l-315 -383h-174l405 481l-385 461h174z" />
<glyph unicode="y" horiz-adv-x="1062" d="M606 -8q-27 -59 -74 -155q-48 -97 -102 -169q-60 -79 -139 -136q-78 -56 -180 -56q-20 0 -25 1q-12 2 -18 5l-27 135q1 0 6 -1.5t8 -2.5q10 -2 29 -2q39 0 77 8q32 7 70 33q72 51 130 149q61 103 106 230l-471 911h170l375 -784l336 784h161z" />
<glyph unicode="z" horiz-adv-x="854" d="M86 123l498 698h-478v121h644v-119l-502 -702h522v-121h-684v123z" />
<glyph unicode="{" horiz-adv-x="583" d="M496 1513q-46 -5 -72 -22q-25 -17 -40 -46q-12 -24 -17 -65q-5 -42 -5 -75q0 -6 2 -58q1 -26 1 -82q0 -57 1 -85t1 -68q0 -57 -10 -120q-9 -55 -30 -101q-21 -45 -59 -77t-94 -44q56 -12 94 -44t59 -77t30 -102q10 -63 10 -119q0 -41 -1 -69t-1 -85q0 -56 -1 -82 q-2 -52 -2 -57q0 -37 5 -77q5 -39 17 -63q15 -31 40 -47q26 -17 72 -22l-4 -43q-89 0 -143 21q-53 21 -83 60q-28 37 -39 91q-10 50 -10 119q0 35 1 61t1 83q0 58 1 87t1 72q0 37 -3 82q-3 47 -16 84q-14 40 -43 66q-32 29 -85 30v61q54 1 85 31q28 26 44 70q14 39 16 86 q2 60 2 82q0 44 -1 72t-1 85q0 55 -1 80t-1 60q0 66 10 117q11 56 39 93q29 38 83 59t143 21z" />
<glyph unicode="|" horiz-adv-x="491" d="M309 -233h-127v1806h127v-1806z" />
<glyph unicode="}" horiz-adv-x="583" d="M92 1556q88 0 142 -21t83 -59q28 -37 39 -93q11 -57 11 -117q0 -35 -1 -60t-1 -80q0 -57 -1 -85q-2 -56 -2 -72q0 -15 1.5 -45t1.5 -37q2 -47 16 -86q16 -44 44 -70q31 -30 85 -31v-61q-53 -1 -85 -30q-29 -26 -43 -66q-13 -37 -16 -84q-4 -60 -4 -82q0 -14 2 -72 q1 -29 1 -87q0 -57 1 -83t1 -61q0 -64 -11 -119q-11 -54 -39 -91q-30 -39 -83 -60q-54 -21 -142 -21l-4 43q46 5 72 22q25 16 40 47q12 24 17 63q4 32 4 77q0 31 -1 57t-1 82q0 57 -1 85t-1 69q0 62 9 119q8 54 31 102q22 47 58 77q38 32 95 44q-57 12 -95 44q-36 30 -58 77 q-23 49 -31 101q-9 57 -9 120q0 40 1 68t1 85q0 56 1 82t1 58q0 42 -4 75q-5 41 -17 65q-14 29 -40 46t-72 22z" />
<glyph unicode="~" horiz-adv-x="1015" d="M864 590q0 -8 -10 -32q-10 -25 -32 -53q-22 -29 -55 -50q-35 -23 -83 -23q-23 0 -74 3t-111 6t-117 6q-76 4 -89 4q-50 0 -72 -14q-18 -11 -41 -38l-26 15q0 14 12 41q10 23 37 53q24 27 59 45q34 18 78 18q28 0 71 -3q36 -2 94 -6q33 -2 103 -6q52 -3 99 -3q32 0 70 8 q36 7 63 45z" />
<glyph unicode="&#xa1;" horiz-adv-x="491" d="M152 879q0 39 27 66q28 28 69 28q35 0 66 -28q30 -27 30 -66t-30 -69t-66 -30q-42 0 -69 30t-27 69zM293 643l53 -1089h-199l50 1089h96z" />
<glyph unicode="&#xa2;" horiz-adv-x="1036" d="M649 907q87 -6 157 -26q73 -20 122 -52l-35 -120q-38 28 -106 51q-66 22 -138 33v-703q73 11 143 42q69 31 117 79l29 -133q-52 -34 -123 -60q-73 -27 -166 -38v-261h-123v258q-106 7 -189 49t-134 104q-54 66 -80 146q-27 82 -27 173q0 82 25 165q24 79 77 143 q51 61 134 102q80 39 194 50v273h123v-275zM248 461q0 -71 17 -129q19 -64 53 -111q35 -48 89 -82q53 -33 119 -45v701q-76 -11 -127 -40q-53 -30 -87 -75t-49 -101q-15 -57 -15 -118z" />
<glyph unicode="&#xa3;" horiz-adv-x="1161" d="M371 104q71 -5 128 -17q30 -6 130 -29q70 -16 131 -27q72 -13 133 -13q46 0 93 10t89 29l-39 -149q-49 -26 -86 -34q-32 -7 -80 -7q-73 0 -145 21q-48 14 -142 46q-103 35 -144 47q-72 21 -152 21q-21 0 -76 -9t-113 -56l-28 96q78 34 135 86q55 50 89 113q34 62 49 135 q15 72 15 145v31h-200v106h192q-14 123 -24 185q-15 90 -15 161q0 100 35 170q36 72 91 114q57 43 126 63q71 20 137 20q96 0 181 -30q89 -31 139 -70l-37 -136q-41 41 -119 71t-159 30q-61 0 -102 -18q-38 -17 -63 -48q-23 -29 -34 -72q-10 -40 -10 -90q0 -73 13 -158 q13 -82 19 -192h285v-106h-281q-5 -108 -44 -220q-42 -120 -121 -212z" />
<glyph unicode="&#xa4;" horiz-adv-x="1189" d="M279 219q-91 112 -91 252q0 65 21 125t72 123l-168 164l61 61l164 -162q71 50 125 69q60 21 129 21q72 0 132 -21q56 -20 120 -69l166 160l61 -59l-162 -164q49 -67 69 -123q21 -60 21 -129q0 -70 -20 -127q-20 -58 -68 -121l164 -164l-63 -61l-166 162q-61 -45 -121 -69 q-61 -24 -129 -24q-65 0 -126 23q-58 22 -128 70l-164 -162l-59 61zM594 774q-64 0 -117 -23q-54 -23 -97 -65q-42 -41 -66 -97q-23 -55 -23 -120q0 -66 23 -119q24 -55 66 -97t97 -66q53 -23 119 -23t118 23q55 24 95 66q40 41 64 97t24 119t-24 119t-64 96q-43 43 -96 66 q-55 24 -119 24z" />
<glyph unicode="&#xa5;" horiz-adv-x="1329" d="M590 522v25l-55 84h-297v106h227l-402 615h183l428 -650l413 650h179l-404 -615h234v-106h-303l-50 -76v-33h353v-106h-353v-416h-153v416h-352v106h352z" />
<glyph unicode="&#xa6;" horiz-adv-x="499" d="M313 561v-794h-127v794h127zM186 778v795h127v-795h-127z" />
<glyph unicode="&#xa7;" horiz-adv-x="901" d="M565 147q0 60 -35 107q-34 46 -87 90q-50 41 -113 86q-64 45 -114 91q-52 47 -87 107q-35 59 -35 134q0 78 36 148q37 73 95 116q-24 55 -24 127q0 75 27 132q25 52 72 93q44 38 97 56q52 18 105 18q58 0 125 -23q65 -22 110 -55l-51 -137q-38 41 -89 63q-54 23 -103 23 q-61 0 -110 -38q-48 -37 -48 -109q0 -60 35 -107t87 -90q50 -41 113 -86q64 -45 114 -91q52 -47 87 -107q35 -59 35 -134q0 -77 -36 -149t-95 -115q8 -21 17 -60q7 -29 7 -67q0 -75 -27 -132q-25 -52 -72 -93q-44 -38 -97 -56q-52 -18 -105 -18q-58 0 -125 23 q-65 22 -110 55l51 137q38 -41 89 -63q54 -23 104 -23q60 0 109 38q48 37 48 109zM680 512q0 66 -45 117q-43 49 -109 99q-58 44 -133 98q-69 50 -119 116q-30 -28 -41 -62q-12 -36 -12 -69q0 -67 44 -119q42 -49 108 -98q18 -13 63 -46t70 -52q71 -53 121 -117q30 28 41 62 q12 36 12 71z" />
<glyph unicode="&#xa8;" horiz-adv-x="450" d="M0 1292q0 37 25 65q24 27 59 27q34 0 60 -27q26 -28 26 -65q0 -38 -26 -64t-60 -26q-35 0 -59 26q-25 27 -25 64zM281 1292q0 38 24 65t60 27q35 0 60 -27q26 -28 26 -65q0 -38 -26 -64t-60 -26q-36 0 -60 26t-24 64z" />
<glyph unicode="&#xa9;" horiz-adv-x="1484" d="M741 1339q129 0 243 -48t198 -132q83 -83 133 -195q49 -110 49 -239q0 -130 -49 -243q-50 -115 -134 -196q-86 -83 -201 -131q-118 -49 -249 -49q-124 0 -236 50q-115 51 -195 133q-84 85 -131 196q-48 113 -48 240q0 128 48 239q48 112 133 195q86 84 198 132t241 48z M741 1255q-109 0 -206 -41q-96 -41 -167 -113q-70 -71 -111 -169q-40 -95 -40 -207q0 -114 40 -210q41 -98 111 -170q73 -75 163 -114q94 -41 202 -41q113 0 212 41q96 40 169 113t113 169q41 99 41 212q0 110 -41 207q-40 96 -112 169q-71 72 -167 113q-97 41 -207 41z M958 905q-36 26 -95 43q-67 19 -122 19q-54 0 -97 -19q-38 -17 -64 -49q-24 -29 -36 -73q-12 -42 -12 -89q0 -103 55 -178q54 -74 163 -74q59 0 119 24q64 26 102 62l18 -114q-39 -26 -110 -49t-148 -23q-82 0 -144 28t-101 73t-59 109q-19 61 -19 134q0 69 18 131t58 108 q38 44 104 72q63 27 153 27q69 0 135 -15q67 -15 107 -42z" />
<glyph unicode="&#xaa;" horiz-adv-x="763" d="M528 756l-10 100h-8q-30 -48 -91 -82q-64 -35 -134 -35q-80 0 -121 47t-41 119q0 69 36 113q35 43 87 64q53 22 108 29q53 7 101 7h55v15q0 69 -43 103t-115 34q-52 0 -92 -14q-42 -14 -76 -35l-20 73q40 24 90 39t106 15q48 0 93 -12q44 -12 79 -36q37 -26 57 -63 q21 -39 21 -94v-387h-82zM311 823q51 0 107 34q59 36 92 93v99h-10q-45 0 -100 -5q-54 -5 -90 -17q-39 -13 -64 -41t-25 -75q0 -46 23 -67q22 -21 67 -21z" />
<glyph unicode="&#xab;" horiz-adv-x="991" d="M248 487l295 -362h-164l-273 362v11l275 362h162l-295 -362v-11zM580 487l294 -362h-163l-273 362v11l275 362h161l-294 -362v-11z" />
<glyph unicode="&#xac;" horiz-adv-x="1294" d="M1139 698v-458h-109v352h-874v106h983z" />
<glyph unicode="&#xad;" horiz-adv-x="997" d="M844 543l-4 -107h-688l4 107h688z" />
<glyph unicode="&#xae;" horiz-adv-x="1484" d="M741 1339q129 0 243 -48t198 -132q83 -83 133 -195q49 -110 49 -239q0 -130 -49 -243q-50 -115 -134 -196q-86 -83 -201 -131q-118 -49 -249 -49q-124 0 -236 50q-115 51 -195 133q-84 85 -131 196q-48 113 -48 240q0 128 48 239q48 112 133 195q86 84 198 132t241 48z M741 1255q-109 0 -206 -41q-96 -41 -167 -113q-70 -71 -111 -169q-40 -95 -40 -207q0 -114 40 -210q41 -98 111 -170q73 -75 163 -114q94 -41 202 -41q113 0 212 41q96 40 169 113t113 169q41 99 41 212q0 110 -41 207q-40 96 -112 169q-71 72 -167 113q-97 41 -207 41z M537 1085q3 0 34.5 1.5t51.5 2.5q34 1 88 1q50 0 102 -10q47 -9 81 -30q33 -20 52 -59q19 -40 19 -92q0 -65 -43 -114t-119 -70l207 -303h-113l-203 297h-59v-297h-98v673zM715 1012q-29 0 -42 -1t-38 -1v-228q24 -2 39 -2h43q67 0 106 33t39 94q0 48 -34 76q-35 29 -113 29 z" />
<glyph unicode="&#xb0;" horiz-adv-x="733" d="M365 1348q125 0 188 -72t63 -170q0 -46 -15 -86t-46 -73q-30 -32 -79 -50q-48 -18 -111 -18q-68 0 -113 19q-48 20 -77 52q-28 31 -44 75q-14 39 -14 87q0 50 16 91q17 42 48 75t78 51q49 19 106 19zM365 956q77 0 113 42t36 108t-37 112t-115 46q-79 0 -114 -44 t-35 -106q0 -65 38 -112q37 -46 114 -46z" />
<glyph unicode="&#xb1;" horiz-adv-x="989" d="M547 719h274v-109h-274v-235h-107v235h-272v109h272v213h107v-213zM821 252v-109h-653v109h653z" />
<glyph unicode="&#xb2;" horiz-adv-x="768" d="M164 1262q44 41 104 71q58 29 117 29q110 0 166 -55q57 -55 57 -144q0 -68 -31 -126q-29 -53 -82 -113q-50 -56 -113 -110q-56 -48 -124 -116h358v-86h-483v86q47 58 113 118q74 66 120 113q54 54 96 113q40 56 40 119q0 16 -5 39q-4 18 -19 38q-14 18 -36 30t-59 12 q-53 0 -108 -32q-54 -32 -89 -77z" />
<glyph unicode="&#xb3;" horiz-adv-x="731" d="M164 1300q39 26 85 45q41 17 93 17q111 0 170 -49t59 -144q0 -46 -34 -83t-82 -60q69 -22 113 -67q42 -43 42 -117q0 -48 -16 -90q-16 -43 -52 -77q-34 -33 -90 -53q-55 -20 -130 -20q-72 0 -116 21q-51 24 -91 57l24 82q48 -38 80 -56q39 -22 98 -22q101 0 146 45 t45 123q0 61 -40 97t-153 36h-24v70h31q76 0 111 32q36 33 36 93q0 44 -23 72t-96 28q-57 0 -94 -17q-41 -19 -70 -42z" />
<glyph unicode="&#xb4;" horiz-adv-x="448" d="M12 1130l-12 41l6 15l369 207q34 -1 54 -23t20 -49q0 -17 -9 -39l-413 -158z" />
<glyph unicode="&#xb5;" horiz-adv-x="1181" d="M381 942v-623q0 -63 15 -106t41 -69q23 -23 62 -36q36 -12 79 -12q48 0 101 16q47 14 93 46q42 29 76 75q33 45 51 105v604h143v-942h-112l-17 176h-8q-27 -86 -119 -143q-93 -58 -229 -58q-63 0 -125 17q-59 16 -102 55l-6 -27q-34 -151 -111 -307l-131 60q32 58 65 132 q32 70 49 126q16 51 30 129q12 66 12 141v641h143z" />
<glyph unicode="&#xb6;" horiz-adv-x="1091" d="M584 508h-43q-122 0 -209 34q-90 35 -146 91q-58 58 -86 133t-28 162q0 107 34 187q34 79 100 136t155 83q95 28 202 28q73 0 155 -3q117 -4 171 -7v-1528h-92v1403h-111v-1403h-102v684z" />
<glyph unicode="&#xb7;" horiz-adv-x="495" d="M152 498q0 38 27 68t69 30q36 0 66 -30t30 -68q0 -40 -30 -67q-31 -28 -66 -28q-41 0 -69 28q-27 27 -27 67z" />
<glyph unicode="&#xb8;" horiz-adv-x="413" d="M0 -365l27 48h14q24 -11 63 -18q36 -7 78 -7q47 0 78 17q33 18 33 65q0 55 -32 75q-31 19 -75 19q-27 0 -50 -4q-31 -5 -48 -10l-18 22l104 158h70l-62 -104q37 8 70 8q72 0 117 -42t45 -106q0 -35 -18 -65q-20 -33 -47 -55q-26 -21 -70 -37q-41 -15 -91 -15 q-49 0 -97 12q-59 15 -89 27z" />
<glyph unicode="&#xb9;" horiz-adv-x="507" d="M342 612h-111v586l-116 -57l-27 86l254 135v-750z" />
<glyph unicode="&#xba;" horiz-adv-x="798" d="M397 1348q68 0 123 -25q51 -23 90 -67q39 -43 56 -97q18 -56 18 -115q0 -57 -17 -107q-17 -51 -54 -92q-36 -41 -89 -65q-54 -24 -125 -24q-74 0 -127 24t-88 67q-33 41 -52 95q-17 50 -17 109q0 63 19 114q21 58 56 95q37 40 90 64q52 24 117 24zM399 840q97 0 138 57 q41 58 41 147q0 87 -44 151q-43 62 -141 62q-96 0 -135 -58q-39 -59 -39 -146q0 -90 44 -152q43 -61 136 -61z" />
<glyph unicode="&#xbb;" horiz-adv-x="991" d="M743 498l-294 362h161l275 -362v-11l-273 -362h-163l294 362v11zM412 498l-295 362h162l274 -362v-11l-272 -362h-164l295 362v11z" />
<glyph unicode="&#xbc;" horiz-adv-x="1456" d="M1368 225h-74v-227h-92v227h-307v86l301 437h98v-437h74v-86zM1202 311v316l-203 -316h203zM295 -49h-133l948 1464h133zM326 612h-111v586l-117 -57l-26 86l254 135v-750z" />
<glyph unicode="&#xbd;" horiz-adv-x="1464" d="M330 612h-111v586l-117 -57l-26 86l254 135v-750zM258 -49h-133l948 1464h133zM920 645q46 43 104 72q56 28 117 28q110 0 166 -55q57 -55 57 -143q0 -67 -32 -126q-30 -56 -82 -114q-49 -55 -112 -109q-56 -48 -124 -116h358v-86h-483v86q49 61 112 118q84 76 120 112 q55 55 97 114q39 55 39 119q0 16 -5 39q-4 20 -18 38q-12 16 -36 29t-59 13q-53 0 -108 -32q-54 -32 -89 -77z" />
<glyph unicode="&#xbe;" horiz-adv-x="1536" d="M125 1298q35 23 85 44q44 18 93 18q111 0 170 -49t59 -144q0 -46 -34 -83t-82 -60q69 -22 113 -67q42 -43 42 -117q0 -48 -16 -90q-16 -43 -52 -77q-34 -33 -90 -53q-55 -20 -130 -20q-73 0 -116 21q-51 24 -91 57l24 82q52 -42 80 -57q38 -21 99 -21q100 0 145 45 t45 123q0 61 -40 97q-41 36 -153 36h-24v70h31q76 0 111 32q36 33 36 93q0 46 -22 72q-23 28 -97 28q-57 0 -94 -17q-41 -19 -70 -42zM1448 225h-74v-227h-92v227h-307v86l301 437h98v-437h74v-86zM1282 311v316l-203 -316h203zM403 -49h-133l949 1464h133z" />
<glyph unicode="&#xbf;" horiz-adv-x="823" d="M549 877q0 -41 -28 -69t-66 -28t-69 28q-30 27 -30 69q0 39 30 67q31 29 69 29q39 0 66 -29q28 -30 28 -67zM748 -354q-56 -44 -138 -72q-84 -29 -159 -29q-80 0 -149 25q-68 25 -113 67q-46 43 -70 105q-25 64 -25 135q0 59 22 116q22 56 55 108q40 63 72 110 q33 48 71 120q35 66 57 140q22 75 22 170h131q0 -106 -20 -182q-22 -84 -52 -145q-32 -64 -69 -117q-26 -36 -69 -104q-29 -46 -52 -103q-20 -50 -20 -115q0 -83 52 -139q53 -58 159 -58q24 0 69 9q38 7 72 21q31 12 64 32q30 18 53 41z" />
<glyph unicode="&#xc0;" d="M1331 0h-174l-199 455h-604l-180 -455h-164l541 1352h186zM412 598h483l-254 582zM858 1470l-412 158q-8 19 -8 39q0 27 19 48t53 22l371 -205l4 -14l-11 -41z" />
<glyph unicode="&#xc1;" d="M1331 0h-174l-199 455h-604l-180 -455h-164l541 1352h186zM412 598h483l-254 582zM451 1477l-13 41l6 14l369 205q34 -1 53 -22t19 -48q0 -13 -1 -19q-2 -14 -5 -20l-414 -158z" />
<glyph unicode="&#xc2;" d="M1331 0h-174l-199 455h-604l-180 -455h-164l541 1352h186zM412 598h483l-254 582zM676 1724l225 -202l6 -15l-12 -41l-14 -6l-213 127l-213 -127l-15 6l-12 41l6 15l225 202h17z" />
<glyph unicode="&#xc3;" d="M1331 0h-174l-199 455h-604l-180 -455h-164l541 1352h186zM412 598h483l-254 582zM981 1704q-7 -31 -19 -56q-15 -29 -35 -51q-17 -18 -53 -36q-30 -15 -73 -15q-81 0 -167 15q-80 14 -151 14q-51 0 -71 -13q-18 -11 -41 -38l-27 16q7 24 23 55q18 34 35 51q18 18 54 35 q31 15 74 15q57 0 90 -4q28 -3 70 -11q13 -2 64 -10q27 -4 69 -4q33 0 70 8q35 7 63 45z" />
<glyph unicode="&#xc4;" d="M1331 0h-174l-199 455h-604l-180 -455h-164l541 1352h186zM412 598h483l-254 582zM418 1626q0 38 24 65t60 27q34 0 60 -27q26 -28 26 -65q0 -38 -26 -64t-60 -26q-36 0 -60 26t-24 64zM739 1626q0 37 25 65q24 27 59 27q33 0 59 -27q25 -26 25 -65t-25 -64 q-26 -26 -59 -26q-35 0 -59 26q-25 27 -25 64z" />
<glyph unicode="&#xc5;" d="M643 1602q80 0 128 -50t48 -112q0 -41 -19 -70q-20 -31 -50 -49l581 -1321h-174l-199 455h-604l-180 -455h-164l529 1321q-36 19 -55 51t-19 72q0 64 49 110q51 48 129 48zM412 598h483l-254 582zM645 1339q41 0 67 31q25 29 25 70q0 40 -27 70t-69 30q-45 0 -71 -27 q-25 -26 -25 -67q0 -42 29 -74q30 -33 71 -33z" />
<glyph unicode="&#xc6;" horiz-adv-x="1554" d="M1473 0h-680v455h-400l-239 -455h-168l721 1352h725v-144h-486v-420h348v-143h-348v-502h527v-143zM793 598v606l-324 -606h324z" />
<glyph unicode="&#xc7;" d="M561 -365l27 48h14q23 -10 63 -18q35 -7 78 -7q47 0 77 17q32 18 32 65q0 55 -31 75q-29 19 -73 19q-28 0 -52 -4q-31 -5 -49 -10l-16 22l88 135q-151 7 -267 67q-113 58 -189 152q-73 91 -110 213q-36 120 -36 253q0 146 43 272q44 129 128 222q87 97 211 151 q125 55 294 55q110 0 221 -24q112 -24 190 -64l-43 -148q-66 44 -162 72q-98 29 -219 29q-138 0 -231 -40q-95 -41 -153 -112q-59 -72 -84 -173q-25 -100 -25 -224q0 -280 123 -424q122 -143 366 -143q134 0 238 36q106 37 174 91l41 -138q-78 -46 -189 -84 q-108 -36 -247 -41l-50 -79q18 4 36 6q24 2 32 2q72 0 117 -42t45 -106q0 -34 -17 -65q-18 -32 -46 -55q-26 -21 -70 -37q-40 -15 -90 -15t-99 12q-57 14 -88 27z" />
<glyph unicode="&#xc8;" horiz-adv-x="1069" d="M985 0h-782v1352h741v-144h-588v-420h451v-143h-451v-502h629v-143zM764 1470l-412 158q-8 19 -8 39q0 29 18 48q19 20 54 22l370 -205l7 -14l-13 -41z" />
<glyph unicode="&#xc9;" horiz-adv-x="1069" d="M985 0h-782v1352h741v-144h-588v-420h451v-143h-451v-502h629v-143zM377 1477l-12 41l6 14l370 205q35 -2 54 -22q18 -19 18 -48q0 -20 -8 -39l-414 -158z" />
<glyph unicode="&#xca;" horiz-adv-x="1069" d="M985 0h-782v1352h741v-144h-588v-420h451v-143h-451v-502h629v-143zM596 1724l225 -202l6 -15l-12 -41l-14 -6l-213 127l-213 -127l-15 6l-12 41l6 15l226 202h16z" />
<glyph unicode="&#xcb;" horiz-adv-x="1069" d="M985 0h-782v1352h741v-144h-588v-420h451v-143h-451v-502h629v-143zM645 1626q0 37 25 65q24 27 59 27t61 -27q25 -26 25 -65t-25 -64q-26 -26 -61 -26t-59 26q-25 27 -25 64zM324 1626q0 38 24 65t60 27q34 0 60 -27q26 -28 26 -65q0 -38 -26 -64t-60 -26q-36 0 -60 26 t-24 64z" />
<glyph unicode="&#xcc;" horiz-adv-x="559" d="M453 1470l-414 158q-8 19 -8 39q0 29 18 48q19 21 53 22l371 -205l6 -14l-12 -41zM356 0h-153v1352h153v-1352z" />
<glyph unicode="&#xcd;" horiz-adv-x="559" d="M84 1477l-12 41l6 14l371 205q34 -1 53 -22q18 -19 18 -48q0 -20 -8 -39l-412 -158zM356 0h-153v1352h153v-1352z" />
<glyph unicode="&#xce;" horiz-adv-x="559" d="M283 1724l227 -202l6 -15l-12 -41l-17 -6l-211 127l-213 -127l-16 6l-10 41l6 15l225 202h15zM356 0h-153v1352h153v-1352z" />
<glyph unicode="&#xcf;" horiz-adv-x="559" d="M39 1626q0 38 24 65t60 27q35 0 60 -27q26 -28 26 -65q0 -38 -26 -64t-60 -26q-36 0 -60 26t-24 64zM360 1626q0 37 25 65q24 27 59 27q36 0 61 -27q25 -26 25 -65t-25 -64q-26 -26 -61 -26t-59 26q-25 27 -25 64zM356 0h-153v1352h153v-1352z" />
<glyph unicode="&#xd0;" horiz-adv-x="1445" d="M29 668v90h178v594h10q73 3 213 7q114 3 223 3q145 0 266 -41q117 -40 203 -113q109 -100 158 -239q49 -140 49 -307q0 -140 -39 -264q-39 -123 -120 -218q-80 -94 -203 -149q-124 -56 -291 -56q-138 0 -261 8q-138 9 -208 17v668h-178zM719 758v-90h-359v-545 q129 -12 310 -12q244 0 366 143q123 144 123 424q0 124 -25 224q-25 101 -84 173q-58 71 -153 112q-93 40 -231 40q-108 0 -161 -1q-99 -2 -145 -5v-463h359z" />
<glyph unicode="&#xd1;" horiz-adv-x="1441" d="M1085 240v1112h154v-1352h-174l-709 1110v-1110h-153v1352h174zM1012 1704q-6 -28 -20 -56q-15 -29 -35 -51q-17 -19 -52 -36q-30 -15 -74 -15q-81 0 -166 15q-80 14 -151 14q-52 0 -72 -13q-18 -11 -41 -38l-26 16q8 28 22 55q17 32 36 51t53 35q32 15 75 15q56 0 89 -4 q31 -4 71 -11q17 -3 63 -10q27 -4 70 -4q33 0 70 8q34 7 63 45z" />
<glyph unicode="&#xd2;" horiz-adv-x="1548" d="M911 1470l-411 158q-8 19 -8 39q0 29 18 48q19 21 53 22l369 -205l6 -14l-10 -41zM774 1362q161 0 283 -55t207 -151q83 -93 127 -220q43 -123 43 -262q0 -135 -42 -261q-43 -128 -127 -224t-211 -155t-294 -59q-162 0 -285 56t-201 149t-119 218q-40 123 -40 261 q0 145 44 274q44 128 128 223q85 96 207 151t280 55zM764 111q135 0 228 43q99 46 156 118q61 78 89 178q29 104 29 218q0 125 -30 227q-30 103 -90 176q-61 75 -155 115q-96 41 -223 41q-133 0 -223 -40q-93 -41 -150 -113t-84 -173q-26 -97 -26 -221q0 -282 123 -426 q122 -143 356 -143z" />
<glyph unicode="&#xd3;" horiz-adv-x="1548" d="M639 1477l-10 41l6 14l369 205q34 -1 53 -22q18 -19 18 -48q0 -18 -6 -39l-414 -158zM774 1362q161 0 283 -55t207 -151q83 -93 127 -220q43 -123 43 -262q0 -135 -42 -261q-43 -128 -127 -224t-211 -155t-294 -59q-162 0 -285 56t-201 149t-119 218q-40 123 -40 261 q0 145 44 274q44 128 128 223q85 96 207 151t280 55zM764 111q135 0 228 43q99 46 156 118q61 78 89 178q29 104 29 218q0 125 -30 227q-30 103 -90 176q-61 75 -155 115q-96 41 -223 41q-133 0 -223 -40q-93 -41 -150 -113t-84 -173q-26 -97 -26 -221q0 -282 123 -426 q122 -143 356 -143z" />
<glyph unicode="&#xd4;" horiz-adv-x="1548" d="M803 1724l225 -202l6 -15l-12 -41l-14 -6l-213 127l-213 -127l-15 6l-12 41l6 15l225 202h17zM774 1362q161 0 283 -55t207 -151q83 -93 127 -220q43 -123 43 -262q0 -135 -42 -261q-43 -128 -127 -224t-211 -155t-294 -59q-162 0 -285 56t-201 149t-119 218 q-40 123 -40 261q0 145 44 274q44 128 128 223q85 96 207 151t280 55zM764 111q135 0 228 43q99 46 156 118q61 78 89 178q29 104 29 218q0 125 -30 227q-30 103 -90 176q-61 75 -155 115q-96 41 -223 41q-133 0 -223 -40q-93 -41 -150 -113t-84 -173q-26 -97 -26 -221 q0 -282 123 -426q122 -143 356 -143z" />
<glyph unicode="&#xd5;" horiz-adv-x="1548" d="M1096 1704q-6 -28 -20 -56q-15 -29 -35 -51q-17 -19 -52 -36q-30 -15 -74 -15q-81 0 -166 15q-80 14 -151 14q-52 0 -72 -13q-18 -11 -41 -38l-26 16q8 28 22 55q17 32 36 51t53 35q32 15 75 15q56 0 89 -4q31 -4 71 -11q17 -3 63 -10q27 -4 70 -4q33 0 70 8q34 7 63 45z M774 1362q161 0 283 -55t207 -151q83 -93 127 -220q43 -123 43 -262q0 -135 -42 -261q-43 -128 -127 -224t-211 -155t-294 -59q-162 0 -285 56t-201 149t-119 218q-40 123 -40 261q0 145 44 274q44 128 128 223q85 96 207 151t280 55zM764 111q135 0 228 43q99 46 156 118 q61 78 89 178q29 104 29 218q0 125 -30 227q-30 103 -90 176q-61 75 -155 115q-96 41 -223 41q-133 0 -223 -40q-93 -41 -150 -113t-84 -173q-26 -97 -26 -221q0 -282 123 -426q122 -143 356 -143z" />
<glyph unicode="&#xd6;" horiz-adv-x="1548" d="M530 1626q0 37 25 65q24 27 59 27q36 0 61 -27q25 -26 25 -65t-25 -64q-26 -26 -61 -26t-59 26q-25 27 -25 64zM852 1626q0 37 25 65q24 27 59 27q34 0 60 -27q26 -28 26 -65q0 -38 -26 -64t-60 -26q-35 0 -59 26q-25 27 -25 64zM774 1362q161 0 283 -55t207 -151 q83 -93 127 -220q43 -123 43 -262q0 -135 -42 -261q-43 -128 -127 -224t-211 -155t-294 -59q-162 0 -285 56t-201 149t-119 218q-40 123 -40 261q0 145 44 274q44 128 128 223q85 96 207 151t280 55zM764 111q135 0 228 43q99 46 156 118q61 78 89 178q29 104 29 218 q0 125 -30 227q-30 103 -90 176q-61 75 -155 115q-96 41 -223 41q-133 0 -223 -40q-93 -41 -150 -113t-84 -173q-26 -97 -26 -221q0 -282 123 -426q122 -143 356 -143z" />
<glyph unicode="&#xd7;" horiz-adv-x="937" d="M467 414l-246 -248l-76 76l246 247l-246 246l76 76l246 -246l250 248l76 -76l-250 -248l250 -249l-76 -76z" />
<glyph unicode="&#xd8;" horiz-adv-x="1548" d="M266 190q-73 91 -112 214q-37 118 -37 255q0 145 44 274q44 128 128 223q85 96 207 151t280 55q114 0 210 -29q92 -28 171 -82l133 156l105 -80l-138 -164q89 -97 134 -222q45 -126 45 -267q0 -135 -42 -261q-43 -128 -127 -224t-211 -155t-294 -59q-123 0 -224 32 q-102 32 -178 91l-143 -170l-98 88zM766 111q135 0 228 43q99 46 156 118q61 78 89 178q29 104 29 218q0 238 -105 385l-708 -844q116 -98 311 -98zM287 680q0 -231 82 -367l700 832q-116 82 -299 82q-133 0 -223 -40q-93 -41 -150 -113t-84 -173q-26 -97 -26 -221z" />
<glyph unicode="&#xd9;" horiz-adv-x="1409" d="M872 1470l-411 158q-8 19 -8 39q0 29 18 48q19 21 53 22l371 -205l4 -14l-10 -41zM342 524q0 -221 97 -317t270 -96q171 0 270 96q98 95 98 317v828h144v-897q0 -98 -31 -188q-29 -85 -94 -151q-62 -64 -160 -102q-95 -37 -227 -37q-145 0 -243 37q-100 38 -161 102 q-62 66 -89 151q-28 90 -28 188v897h154v-828z" />
<glyph unicode="&#xda;" horiz-adv-x="1409" d="M522 1477l-12 41l6 14l371 205q34 -1 53 -22q18 -19 18 -48q0 -20 -8 -39l-411 -158zM342 524q0 -221 97 -317t270 -96q171 0 270 96q98 95 98 317v828h144v-897q0 -98 -31 -188q-29 -85 -94 -151q-62 -64 -160 -102q-95 -37 -227 -37q-145 0 -243 37q-100 38 -161 102 q-62 66 -89 151q-28 90 -28 188v897h154v-828z" />
<glyph unicode="&#xdb;" horiz-adv-x="1409" d="M705 1724l227 -202l4 -15l-10 -41l-17 -6l-211 127l-213 -127l-16 6l-10 41l4 15l227 202h15zM342 524q0 -221 97 -317t270 -96q171 0 270 96q98 95 98 317v828h144v-897q0 -98 -31 -188q-29 -85 -94 -151q-62 -64 -160 -102q-95 -37 -227 -37q-145 0 -243 37 q-100 38 -161 102q-62 66 -89 151q-28 90 -28 188v897h154v-828z" />
<glyph unicode="&#xdc;" horiz-adv-x="1409" d="M483 1626q0 37 25 65q24 27 59 27t61 -27q25 -26 25 -65t-25 -64q-26 -26 -61 -26t-59 26q-25 27 -25 64zM805 1626q0 38 24 65t60 27q35 0 60 -27q26 -28 26 -65q0 -38 -26 -64t-60 -26q-36 0 -60 26t-24 64zM342 524q0 -221 97 -317t270 -96q171 0 270 96q98 95 98 317 v828h144v-897q0 -98 -31 -188q-29 -85 -94 -151q-62 -64 -160 -102q-95 -37 -227 -37q-145 0 -243 37q-100 38 -161 102q-62 66 -89 151q-28 90 -28 188v897h154v-828z" />
<glyph unicode="&#xdd;" horiz-adv-x="1159" d="M451 1477l-11 41l6 14l369 205q34 -1 53 -22t19 -48q0 -18 -6 -39l-414 -158zM-23 1352h183l428 -650l413 650h179l-523 -797v-555h-153v547z" />
<glyph unicode="&#xde;" horiz-adv-x="1062" d="M346 1092q13 0 41 1t41 2q27 1 68 1q219 0 351 -106q130 -105 130 -304q0 -84 -26 -157q-26 -74 -82 -128q-58 -56 -146 -87q-89 -31 -217 -31q-44 0 -74 1q-59 2 -86 5v-289h-143v1352h143v-260zM500 961q-13 0 -71 -2q-48 -2 -83 -3v-530q39 -4 83 -6q58 -2 69 -2 q160 0 234 68q75 69 75 212q0 62 -15 110q-14 46 -52 82q-35 34 -94 52q-62 19 -146 19z" />
<glyph unicode="&#xdf;" horiz-adv-x="1114" d="M303 0h-143v995q0 118 23 209q24 94 72 162q47 65 119 104q70 37 165 37q78 0 137 -23t104 -62q42 -36 67 -88q23 -47 23 -103q0 -71 -32 -128q-33 -59 -72 -111q-44 -59 -72 -100q-33 -48 -33 -93q0 -43 29 -75q30 -33 72 -62q8 -5 40.5 -28t51.5 -36q45 -30 92 -77 q43 -43 72 -101t29 -137q0 -84 -32 -143q-31 -57 -78 -95q-45 -36 -100 -53q-56 -17 -100 -17q-66 0 -125 28q-53 25 -94 63l41 145q29 -59 84 -95q52 -34 109 -34q59 0 101 44t42 134q0 70 -28 121q-26 48 -68 85q-34 30 -88 65q-53 34 -88 64q-44 37 -69 78 q-28 45 -28 111q0 72 30 127t66 105q34 46 65 98q30 50 30 107q0 66 -46 113q-47 48 -141 48q-74 0 -118 -32q-46 -34 -70 -86q-25 -54 -32 -124q-7 -66 -7 -145v-995z" />
<glyph unicode="&#xe0;" horiz-adv-x="1019" d="M635 1124l-414 158q-6 21 -6 39q0 28 18 49t54 23l368 -207l7 -15l-11 -41zM758 0l-17 168h-8q-24 -39 -65 -74q-37 -32 -91 -61q-49 -27 -109 -42q-62 -16 -116 -16q-135 0 -202 79q-68 80 -68 198t59 186q62 71 146 105q85 34 181 45q90 10 167 10h92v25q0 77 -21 118 q-21 40 -63 70q-36 23 -75 32q-41 9 -105 9q-85 0 -152 -23q-69 -23 -127 -59l-32 123q137 80 327 80q74 0 144 -14q68 -14 118 -46q61 -38 95 -104q34 -67 34 -168v-641h-112zM395 96q81 0 178 54q94 52 154 153v191h-18q-70 0 -168 -7q-84 -6 -153 -30q-68 -24 -112 -71 q-43 -46 -43 -126q0 -79 45 -122q44 -42 117 -42z" />
<glyph unicode="&#xe1;" horiz-adv-x="1019" d="M379 1130l-12 41l6 15l368 207q35 -2 55 -23q19 -20 19 -49q0 -20 -8 -39l-414 -158zM758 0l-17 168h-8q-24 -39 -65 -74q-37 -32 -91 -61q-49 -27 -109 -42q-62 -16 -116 -16q-135 0 -202 79q-68 80 -68 198t59 186q62 71 146 105q85 34 181 45q90 10 167 10h92v25 q0 77 -21 118q-21 40 -63 70q-36 23 -75 32q-41 9 -105 9q-85 0 -152 -23q-69 -23 -127 -59l-32 123q137 80 327 80q74 0 144 -14q68 -14 118 -46q61 -38 95 -104q34 -67 34 -168v-641h-112zM395 96q81 0 178 54q94 52 154 153v191h-18q-70 0 -168 -7q-84 -6 -153 -30 q-68 -24 -112 -71q-43 -46 -43 -126q0 -79 45 -122q44 -42 117 -42z" />
<glyph unicode="&#xe2;" horiz-adv-x="1019" d="M500 1378l225 -202l6 -15l-12 -39l-14 -6l-213 125l-211 -125l-17 6l-12 39l6 15l225 202h17zM758 0l-17 168h-8q-24 -39 -65 -74q-37 -32 -91 -61q-49 -27 -109 -42q-62 -16 -116 -16q-135 0 -202 79q-68 80 -68 198t59 186q62 71 146 105q85 34 181 45q90 10 167 10h92 v25q0 77 -21 118q-21 40 -63 70q-36 23 -75 32q-41 9 -105 9q-85 0 -152 -23q-69 -23 -127 -59l-32 123q137 80 327 80q74 0 144 -14q68 -14 118 -46q61 -38 95 -104q34 -67 34 -168v-641h-112zM395 96q81 0 178 54q94 52 154 153v191h-18q-70 0 -168 -7q-84 -6 -153 -30 q-68 -24 -112 -71q-43 -46 -43 -126q0 -79 45 -122q44 -42 117 -42z" />
<glyph unicode="&#xe3;" horiz-adv-x="1019" d="M831 1368q0 -8 -10 -32q-11 -28 -31 -53q-21 -27 -56 -50t-83 -23q-22 0 -64 3q-10 1 -41 3.5t-49 3.5q-11 1 -30.5 2t-35.5 2t-30 2q-47 3 -79 3q-50 0 -72 -14q-20 -13 -41 -37l-27 16q0 12 13 41q12 26 36 52q23 25 60 44q36 19 78 19q44 0 134 -10q81 -9 171 -9 q32 0 69 8q36 8 64 45zM758 0l-17 168h-8q-24 -39 -65 -74q-37 -32 -91 -61q-49 -27 -109 -42q-62 -16 -116 -16q-135 0 -202 79q-68 80 -68 198t59 186q62 71 146 105q85 34 181 45q90 10 167 10h92v25q0 77 -21 118q-21 40 -63 70q-36 23 -75 32q-41 9 -105 9 q-85 0 -152 -23q-69 -23 -127 -59l-32 123q137 80 327 80q74 0 144 -14q68 -14 118 -46q61 -38 95 -104q34 -67 34 -168v-641h-112zM395 96q81 0 178 54q94 52 154 153v191h-18q-70 0 -168 -7q-84 -6 -153 -30q-68 -24 -112 -71q-43 -46 -43 -126q0 -79 45 -122 q44 -42 117 -42z" />
<glyph unicode="&#xe4;" horiz-adv-x="1019" d="M266 1282q0 37 25 65q24 27 59 27q34 0 59 -27q25 -26 25 -65t-25 -64q-26 -26 -59 -26q-35 0 -59 26q-25 27 -25 64zM588 1282q0 39 23 65q24 27 59 27q34 0 60 -27q26 -28 26 -65q0 -38 -26 -64t-60 -26q-35 0 -59 26q-23 24 -23 64zM758 0l-17 168h-8q-24 -39 -65 -74 q-37 -32 -91 -61q-49 -27 -109 -42q-62 -16 -116 -16q-135 0 -202 79q-68 80 -68 198t59 186q62 71 146 105q85 34 181 45q90 10 167 10h92v25q0 77 -21 118q-21 40 -63 70q-36 23 -75 32q-41 9 -105 9q-85 0 -152 -23q-69 -23 -127 -59l-32 123q137 80 327 80q74 0 144 -14 q68 -14 118 -46q61 -38 95 -104q34 -67 34 -168v-641h-112zM395 96q81 0 178 54q94 52 154 153v191h-18q-70 0 -168 -7q-84 -6 -153 -30q-68 -24 -112 -71q-43 -46 -43 -126q0 -79 45 -122q44 -42 117 -42z" />
<glyph unicode="&#xe5;" horiz-adv-x="1019" d="M520 1399q80 0 125 -48t45 -106q0 -54 -43 -98q-43 -45 -125 -45q-45 0 -75 13q-31 13 -53 35t-32 47q-10 24 -10 52q0 57 45 104q45 46 123 46zM522 1151q42 0 66 30t24 64q0 37 -25 71t-69 34q-42 0 -66 -32t-24 -67q0 -37 27 -68q27 -32 67 -32zM758 0l-17 168h-8 q-24 -39 -65 -74q-37 -32 -91 -61q-49 -27 -109 -42q-62 -16 -116 -16q-135 0 -202 79q-68 80 -68 198t59 186q62 71 146 105q85 34 181 45q90 10 167 10h92v25q0 77 -21 118q-21 40 -63 70q-36 23 -75 32q-41 9 -105 9q-85 0 -152 -23q-69 -23 -127 -59l-32 123 q137 80 327 80q74 0 144 -14q68 -14 118 -46q61 -38 95 -104q34 -67 34 -168v-641h-112zM395 96q81 0 178 54q94 52 154 153v191h-18q-70 0 -168 -7q-84 -6 -153 -30q-68 -24 -112 -71q-43 -46 -43 -126q0 -79 45 -122q44 -42 117 -42z" />
<glyph unicode="&#xe6;" horiz-adv-x="1677" d="M834 811q61 71 155 116q95 46 213 46q181 0 279 -91t98 -257q0 -39 -4 -71q-5 -37 -14 -52h-691v-37q1 -75 23 -146q21 -70 62 -121q42 -53 104 -83q64 -31 145 -31q98 0 186 35q84 33 144 76l27 -109q-27 -16 -66 -36q-38 -19 -86 -36q-37 -13 -103 -27 q-57 -12 -118 -12q-137 0 -236 57q-96 55 -157 148h-9q-83 -114 -199 -159q-117 -46 -235 -46q-135 0 -202 79q-68 80 -68 198t59 186q62 71 146 105q85 34 181 45q90 10 167 10h92v25q0 77 -21 118q-21 40 -63 70q-36 23 -75 32q-41 9 -105 9q-85 0 -152 -23 q-69 -23 -127 -59l-32 123q137 80 327 80q74 0 144 -14q68 -14 118 -46q29 -20 50 -45q23 -27 34 -57h9zM395 96q83 0 178 53q93 52 154 154v191h-18q-70 0 -168 -7q-84 -6 -153 -30q-68 -24 -112 -71q-43 -46 -43 -126q0 -79 45 -122q44 -42 117 -42zM1196 858 q-134 0 -210 -71q-74 -69 -101 -177h559q2 14 2 19v18q0 51 -21 91t-55 67q-33 26 -80 40q-43 13 -94 13z" />
<glyph unicode="&#xe7;" horiz-adv-x="1024" d="M897 770q-50 37 -135 63q-89 27 -176 27q-88 0 -153 -31q-62 -30 -103 -81q-42 -53 -60 -118q-18 -66 -18 -138q0 -82 22 -154q22 -71 67 -129q42 -54 109 -88q64 -33 150 -33q80 0 167 32q83 31 142 85l33 -127q-55 -36 -146 -67q-93 -31 -200 -36l-49 -79q18 4 36 6 q24 2 31 2q72 0 117 -42t45 -106q0 -36 -16 -65q-18 -32 -46 -55q-25 -20 -71 -37q-41 -15 -90 -15t-98 12q-57 14 -88 27l-2 12l26 48h15q24 -10 62 -18q35 -7 79 -7q47 0 77 17q31 18 31 65q0 56 -30 75q-29 19 -74 19q-27 0 -51 -4q-31 -5 -49 -10l-17 22l88 135 q-101 7 -185 53q-78 43 -131 111q-51 66 -79 155q-27 87 -27 183t28 188q27 88 87 157q59 68 152 109q90 40 221 40q95 0 192 -23q98 -23 152 -59z" />
<glyph unicode="&#xe8;" horiz-adv-x="1056" d="M582 973q180 0 278 -91t98 -257q0 -39 -4 -71q-5 -37 -14 -52h-690v-21q0 -80 20 -149q20 -70 62 -127q40 -55 103 -88t149 -33q97 0 185 35q84 33 144 76l27 -109q-27 -16 -66 -36q-38 -19 -86 -36q-37 -13 -103 -27q-57 -12 -118 -12q-115 0 -202 40q-88 40 -148 109 t-90 159q-31 93 -31 188q0 99 32 192q31 91 93 160q62 70 153 110q90 40 208 40zM575 858q-133 0 -209 -71q-75 -71 -102 -177h559q2 14 2 19v18q0 52 -20 91q-21 40 -55 67q-33 26 -80 40q-43 13 -95 13zM702 1124l-413 158q-6 21 -6 39q0 28 18 49t53 23l369 -207l6 -15 l-10 -41z" />
<glyph unicode="&#xe9;" horiz-adv-x="1056" d="M582 973q180 0 278 -91t98 -257q0 -39 -4 -71q-5 -37 -14 -52h-690v-21q0 -80 20 -149q20 -70 62 -127q40 -55 103 -88t149 -33q97 0 185 35q84 33 144 76l27 -109q-27 -16 -66 -36q-38 -19 -86 -36q-37 -13 -103 -27q-57 -12 -118 -12q-115 0 -202 40q-88 40 -148 109 t-90 159q-31 93 -31 188q0 99 32 192q31 91 93 160q62 70 153 110q90 40 208 40zM575 858q-133 0 -209 -71q-75 -71 -102 -177h559q2 14 2 19v18q0 52 -20 91q-21 40 -55 67q-33 26 -80 40q-43 13 -95 13zM408 1130l-13 41l6 15l369 207q35 -2 53 -23q19 -22 19 -49 q0 -11 -1 -18q-2 -14 -5 -21l-414 -158z" />
<glyph unicode="&#xea;" horiz-adv-x="1056" d="M582 973q180 0 278 -91t98 -257q0 -39 -4 -71q-5 -37 -14 -52h-690v-21q0 -80 20 -149q20 -70 62 -127q40 -55 103 -88t149 -33q97 0 185 35q84 33 144 76l27 -109q-27 -16 -66 -36q-38 -19 -86 -36q-37 -13 -103 -27q-57 -12 -118 -12q-115 0 -202 40q-88 40 -148 109 t-90 159q-31 93 -31 188q0 99 32 192q31 91 93 160q62 70 153 110q90 40 208 40zM575 858q-133 0 -209 -71q-75 -71 -102 -177h559q2 14 2 19v18q0 52 -20 91q-21 40 -55 67q-33 26 -80 40q-43 13 -95 13zM563 1378l228 -202l4 -15l-11 -39l-16 -6l-211 125l-213 -125l-16 6 l-11 39l5 15l227 202h14z" />
<glyph unicode="&#xeb;" horiz-adv-x="1056" d="M582 973q180 0 278 -91t98 -257q0 -39 -4 -71q-5 -37 -14 -52h-690v-21q0 -80 20 -149q20 -70 62 -127q40 -55 103 -88t149 -33q97 0 185 35q84 33 144 76l27 -109q-27 -16 -66 -36q-38 -19 -86 -36q-37 -13 -103 -27q-57 -12 -118 -12q-115 0 -202 40q-88 40 -148 109 t-90 159q-31 93 -31 188q0 99 32 192q31 91 93 160q62 70 153 110q90 40 208 40zM575 858q-133 0 -209 -71q-75 -71 -102 -177h559q2 14 2 19v18q0 52 -20 91q-21 40 -55 67q-33 26 -80 40q-43 13 -95 13zM627 1282q0 38 24 65t60 27q35 0 60 -27q26 -28 26 -65 q0 -38 -26 -64t-60 -26q-36 0 -60 26t-24 64zM305 1282q0 37 25 65q24 27 59 27t61 -27q25 -26 25 -65t-25 -64q-26 -26 -61 -26t-59 26q-25 27 -25 64z" />
<glyph unicode="&#xec;" horiz-adv-x="462" d="M350 1124l-411 158q-9 22 -9 39q0 27 19 49q18 21 53 23l371 -207l6 -15l-12 -41zM303 0h-143v942h143v-942z" />
<glyph unicode="&#xed;" horiz-adv-x="462" d="M43 1130l-12 41l6 15l369 207q34 -1 54 -23q19 -20 19 -49q0 -20 -8 -39l-414 -158zM303 0h-143v942h143v-942z" />
<glyph unicode="&#xee;" horiz-adv-x="462" d="M233 1378l226 -202l6 -15l-12 -39l-15 -6l-213 125l-211 -125l-16 6l-12 39l6 15l225 202h16zM303 0h-143v942h143v-942z" />
<glyph unicode="&#xef;" horiz-adv-x="462" d="M-16 1282q0 38 24 65t60 27q34 0 60 -27q26 -28 26 -65q0 -38 -26 -64t-60 -26q-36 0 -60 26t-24 64zM305 1282q0 37 25 65q24 27 59 27t61 -27q25 -26 25 -65t-25 -64q-26 -26 -61 -26t-59 26q-25 27 -25 64zM303 0h-143v942h143v-942z" />
<glyph unicode="&#xf0;" horiz-adv-x="1155" d="M705 1516q80 -71 151 -193l240 64l37 -99l-230 -59q64 -137 101 -300q36 -158 36 -337q0 -120 -21 -231q-21 -109 -76 -197q-54 -86 -144 -137q-92 -52 -228 -52q-128 0 -217 43t-146 115q-55 70 -83 162q-27 90 -27 186t28 188q27 88 86 156t148 108t215 40 q111 0 201 -38q88 -37 129 -124l6 2q-29 123 -57 216t-66 171l-256 -65l-34 94l241 63q-40 64 -82 113q-54 63 -102 111h150zM571 84q86 0 145 34q61 35 100 90q40 57 60 129q19 70 19 152q0 186 -91 278q-92 93 -237 93q-85 0 -146 -32q-59 -31 -97 -84q-37 -52 -55 -119 q-17 -64 -17 -140q0 -77 18 -149q17 -68 58 -128q37 -55 99 -90q59 -34 144 -34z" />
<glyph unicode="&#xf1;" horiz-adv-x="1116" d="M883 1358q-6 -28 -20 -56q-15 -29 -35 -51q-19 -21 -52 -37q-28 -14 -74 -14q-86 0 -166 14q-86 15 -151 15q-50 0 -72 -14q-20 -13 -41 -37l-26 16q8 28 22 55q16 30 36 50q21 21 53 36q31 15 75 15q56 0 89 -4q31 -4 71 -11q17 -3 63 -10q27 -4 70 -4q33 0 70 8 q35 7 63 45zM821 0v623q0 125 -55 177t-141 52q-54 0 -102 -16q-47 -16 -93 -49q-44 -32 -76 -77q-33 -47 -51 -106v-604h-143v942h112l17 -176h8q27 86 119 146q93 61 229 61q65 0 124 -18t101 -56q44 -39 69 -102q26 -64 26 -156v-641h-144z" />
<glyph unicode="&#xf2;" horiz-adv-x="1148" d="M700 1124l-413 158q-8 19 -8 39q0 28 18 49t53 23l371 -207l6 -15l-12 -41zM573 973q125 0 215 -42t149 -113t86 -162q28 -95 28 -191q0 -98 -28 -190q-27 -87 -85 -155q-58 -67 -146 -106t-210 -39q-123 0 -216 41q-90 40 -151 110q-59 68 -88 159q-29 92 -29 190 q0 99 29 191q28 88 87 158q58 69 148 109q89 40 211 40zM580 84q80 0 142 31q59 29 100 83q42 54 59 120q18 69 18 145q0 79 -19 149t-61 126q-41 54 -103 87q-63 33 -149 33q-81 0 -143 -31q-57 -29 -98 -82q-41 -54 -58 -119q-18 -69 -18 -145q0 -79 19 -149 q19 -71 60 -127t102 -88q63 -33 149 -33z" />
<glyph unicode="&#xf3;" horiz-adv-x="1148" d="M422 1130l-12 41l6 15l368 207q35 -2 55 -23q19 -20 19 -49q0 -20 -8 -39l-414 -158zM573 973q125 0 215 -42t149 -113t86 -162q28 -95 28 -191q0 -98 -28 -190q-27 -87 -85 -155q-58 -67 -146 -106t-210 -39q-123 0 -216 41q-90 40 -151 110q-59 68 -88 159 q-29 92 -29 190q0 99 29 191q28 88 87 158q58 69 148 109q89 40 211 40zM580 84q80 0 142 31q59 29 100 83q42 54 59 120q18 69 18 145q0 79 -19 149t-61 126q-41 54 -103 87q-63 33 -149 33q-81 0 -143 -31q-57 -29 -98 -82q-41 -54 -58 -119q-18 -69 -18 -145 q0 -79 19 -149q19 -71 60 -127t102 -88q63 -33 149 -33z" />
<glyph unicode="&#xf4;" horiz-adv-x="1148" d="M598 1378l225 -202l6 -15l-10 -39l-16 -6l-213 125l-211 -125l-17 6l-12 39l6 15l228 202h14zM573 973q125 0 215 -42t149 -113t86 -162q28 -95 28 -191q0 -98 -28 -190q-27 -87 -85 -155q-58 -67 -146 -106t-210 -39q-123 0 -216 41q-90 40 -151 110q-59 68 -88 159 q-29 92 -29 190q0 99 29 191q28 88 87 158q58 69 148 109q89 40 211 40zM580 84q80 0 142 31q59 29 100 83q42 54 59 120q18 69 18 145q0 79 -19 149t-61 126q-41 54 -103 87q-63 33 -149 33q-81 0 -143 -31q-57 -29 -98 -82q-41 -54 -58 -119q-18 -69 -18 -145 q0 -79 19 -149q19 -71 60 -127t102 -88q63 -33 149 -33z" />
<glyph unicode="&#xf5;" horiz-adv-x="1148" d="M874 1358q-7 -31 -19 -56q-15 -29 -35 -51q-19 -21 -52 -37q-28 -14 -74 -14q-87 0 -167 14q-86 15 -150 15q-50 0 -72 -14q-20 -13 -41 -37l-26 16q8 28 22 55q16 30 36 50q21 21 53 36q31 15 75 15q56 0 89 -4q31 -4 71 -11q17 -3 63 -10q27 -4 70 -4q32 0 69 8 q36 8 64 45zM573 973q125 0 215 -42t149 -113t86 -162q28 -95 28 -191q0 -98 -28 -190q-27 -87 -85 -155q-58 -67 -146 -106t-210 -39q-123 0 -216 41q-90 40 -151 110q-59 68 -88 159q-29 92 -29 190q0 99 29 191q28 88 87 158q58 69 148 109q89 40 211 40zM580 84 q80 0 142 31q59 29 100 83q42 54 59 120q18 69 18 145q0 79 -19 149t-61 126q-41 54 -103 87q-63 33 -149 33q-81 0 -143 -31q-57 -29 -98 -82q-41 -54 -58 -119q-18 -69 -18 -145q0 -79 19 -149q19 -71 60 -127t102 -88q63 -33 149 -33z" />
<glyph unicode="&#xf6;" horiz-adv-x="1148" d="M330 1282q0 38 24 65t60 27q34 0 60 -27q26 -28 26 -65q0 -38 -26 -64t-60 -26q-36 0 -60 26t-24 64zM651 1282q0 37 25 65q24 27 59 27t61 -27q25 -26 25 -65t-25 -64q-26 -26 -61 -26t-59 26q-25 27 -25 64zM573 973q125 0 215 -42t149 -113t86 -162q28 -95 28 -191 q0 -98 -28 -190q-27 -87 -85 -155q-58 -67 -146 -106t-210 -39q-123 0 -216 41q-90 40 -151 110q-59 68 -88 159q-29 92 -29 190q0 99 29 191q28 88 87 158q58 69 148 109q89 40 211 40zM580 84q80 0 142 31q59 29 100 83q42 54 59 120q18 69 18 145q0 79 -19 149t-61 126 q-41 54 -103 87q-63 33 -149 33q-81 0 -143 -31q-57 -29 -98 -82q-41 -54 -58 -119q-18 -69 -18 -145q0 -79 19 -149q19 -71 60 -127t102 -88q63 -33 149 -33z" />
<glyph unicode="&#xf7;" horiz-adv-x="1159" d="M1006 543v-107h-848v107h848zM508 164q0 37 28 67q27 29 68 29q36 0 67 -29q29 -28 29 -67q0 -43 -29 -69q-30 -27 -67 -27q-41 0 -68 27q-28 28 -28 69zM508 813q0 38 28 69q26 29 68 29q38 0 67 -29t29 -69q0 -41 -29 -67q-30 -27 -67 -27q-41 0 -68 27q-28 28 -28 67z " />
<glyph unicode="&#xf8;" horiz-adv-x="1148" d="M199 145q-53 70 -76 153q-25 89 -25 177q0 99 29 191q28 88 87 158q58 69 148 109q89 40 211 40q83 0 157 -22q73 -22 124 -58l104 119l105 -80l-115 -129q54 -72 78 -157q25 -91 25 -181q0 -98 -28 -190q-27 -87 -85 -155q-58 -67 -146 -106t-210 -39q-174 0 -289 80 l-111 -127l-98 88zM580 84q80 0 142 31q59 29 100 83q42 54 59 120q18 69 18 145q0 127 -49 225l-471 -536q80 -68 201 -68zM250 481q0 -64 11 -116q12 -58 36 -107l469 535q-39 30 -88 48q-47 17 -111 17q-81 0 -143 -31q-57 -29 -98 -82q-41 -54 -58 -119 q-18 -69 -18 -145z" />
<glyph unicode="&#xf9;" horiz-adv-x="1114" d="M682 1124l-412 158q-8 19 -8 39q0 27 19 49q18 21 53 23l368 -207l7 -15l-11 -41zM293 942v-623q0 -63 15 -106t41 -69q23 -23 62 -36q36 -12 78 -12q49 0 102 16q47 14 93 46q42 29 76 75q33 45 51 105v604h143v-942h-112l-17 176h-8q-27 -86 -119 -143 q-93 -58 -229 -58q-64 0 -124 17q-57 16 -101 54t-69 100t-25 155v641h143z" />
<glyph unicode="&#xfa;" horiz-adv-x="1114" d="M350 1130l-10 41l6 15l369 207q35 -2 53 -23t18 -49q0 -18 -6 -39l-413 -158zM293 942v-623q0 -63 15 -106t41 -69q23 -23 62 -36q36 -12 78 -12q49 0 102 16q47 14 93 46q42 29 76 75q33 45 51 105v604h143v-942h-112l-17 176h-8q-27 -86 -119 -143q-93 -58 -229 -58 q-64 0 -124 17q-57 16 -101 54t-69 100t-25 155v641h143z" />
<glyph unicode="&#xfb;" horiz-adv-x="1114" d="M553 1378l227 -202l4 -15l-10 -39l-16 -6l-213 125l-211 -125l-17 6l-10 39l4 15l228 202h14zM293 942v-623q0 -63 15 -106t41 -69q23 -23 62 -36q36 -12 78 -12q49 0 102 16q47 14 93 46q42 29 76 75q33 45 51 105v604h143v-942h-112l-17 176h-8q-27 -86 -119 -143 q-93 -58 -229 -58q-64 0 -124 17q-57 16 -101 54t-69 100t-25 155v641h143z" />
<glyph unicode="&#xfc;" horiz-adv-x="1114" d="M299 1282q0 37 25 65q24 27 59 27t60 -27q26 -28 26 -65q0 -38 -26 -64t-60 -26q-35 0 -59 26q-25 27 -25 64zM621 1282q0 38 24 65t60 27q35 0 60 -27q26 -28 26 -65q0 -38 -26 -64t-60 -26q-36 0 -60 26t-24 64zM293 942v-623q0 -63 15 -106t41 -69q23 -23 62 -36 q36 -12 78 -12q49 0 102 16q47 14 93 46q42 29 76 75q33 45 51 105v604h143v-942h-112l-17 176h-8q-27 -86 -119 -143q-93 -58 -229 -58q-64 0 -124 17q-57 16 -101 54t-69 100t-25 155v641h143z" />
<glyph unicode="&#xfd;" horiz-adv-x="1062" d="M403 1130l-12 41l6 15l369 207q35 -2 53 -23q19 -22 19 -49q0 -11 -1 -18q-1 -11 -6 -21l-413 -158zM606 -8q-27 -59 -74 -155q-48 -97 -102 -169q-60 -79 -139 -136q-78 -56 -180 -56q-20 0 -25 1q-12 2 -18 5l-27 135q1 0 6 -1.5t8 -2.5q10 -2 29 -2q39 0 77 8 q32 7 70 33q72 51 130 149q61 103 106 230l-471 911h170l375 -784l336 784h161z" />
<glyph unicode="&#xfe;" horiz-adv-x="1177" d="M666 973q103 0 182 -41q77 -40 129 -109t77 -156t25 -188t-27 -193q-26 -89 -82 -160q-55 -70 -136 -110q-84 -41 -191 -41q-137 0 -225 60t-115 147v-714h-143v2048h143v-750q23 37 56 72q33 34 82 66q45 29 103 49t122 20zM629 852q-98 0 -184 -53q-84 -51 -142 -154 v-301q17 -57 53 -104q34 -45 81 -78q45 -32 99 -49t105 -17q72 0 125 29t89 80t54 119q19 71 19 145t-18 143q-19 75 -54 123q-40 56 -93 85q-58 32 -134 32z" />
<glyph unicode="&#xff;" horiz-adv-x="1062" d="M272 1282q0 37 25 65q24 27 59 27q36 0 61 -27q25 -26 25 -65t-25 -64q-26 -26 -61 -26t-59 26q-25 27 -25 64zM594 1282q0 38 24 65t60 27q34 0 60 -27q26 -28 26 -65q0 -38 -26 -64t-60 -26q-36 0 -60 26t-24 64zM606 -8q-27 -59 -74 -155q-48 -97 -102 -169 q-60 -79 -139 -136q-78 -56 -180 -56q-20 0 -25 1q-12 2 -18 5l-27 135q1 0 6 -1.5t8 -2.5q10 -2 29 -2q39 0 77 8q32 7 70 33q72 51 130 149q61 103 106 230l-471 911h170l375 -784l336 784h161z" />
<glyph unicode="&#x152;" horiz-adv-x="1748" d="M1665 0h-709q-94 -25 -196 -25q-162 0 -285 56t-201 149t-119 218q-40 123 -40 261q0 145 44 274q44 128 128 223q85 96 207 151t280 55q38 0 76 -3q47 -4 72 -7h702v-144h-549v-420h412v-143h-412v-502h590v-143zM764 111q86 0 158 18v1079q-76 19 -154 19 q-133 0 -223 -40q-93 -41 -150 -113t-84 -173q-26 -97 -26 -221q0 -282 123 -426q122 -143 356 -143z" />
<glyph unicode="&#x153;" horiz-adv-x="1867" d="M1393 971q180 0 278 -91t98 -257q0 -39 -4 -71q-5 -37 -14 -52h-690v-21q0 -80 20 -149q20 -70 62 -127q40 -55 103 -88t149 -33q97 0 185 35q84 33 144 76l27 -109q-31 -19 -65 -36q-35 -18 -87 -36q-37 -13 -103 -27q-57 -12 -118 -12q-136 0 -240 58q-102 57 -159 151 q-52 -93 -151 -151t-246 -58q-123 0 -216 41q-90 40 -151 110q-59 68 -88 159q-29 92 -29 190q0 99 29 191q28 88 87 158q58 69 148 109q89 40 211 40q149 0 250 -61q99 -60 154 -158q60 98 164 158q107 61 252 61zM580 82q80 0 142 31q59 29 100 83q42 54 59 120 q18 69 18 145q0 79 -19 149t-61 126q-41 54 -103 87q-63 33 -149 33q-81 0 -143 -31q-57 -29 -98 -82q-41 -54 -58 -119q-18 -69 -18 -145q0 -79 19 -149q19 -71 60 -127t102 -88q63 -33 149 -33zM1386 856q-133 0 -209 -71q-75 -71 -102 -177h559q2 14 2 19v18q0 52 -20 91 q-21 40 -55 67q-33 26 -80 40q-43 13 -95 13z" />
<glyph unicode="&#x178;" horiz-adv-x="1159" d="M342 1626q0 37 25 65q24 27 59 27q32 0 58 -27q26 -28 26 -65q0 -38 -26 -64t-58 -26q-35 0 -59 26q-25 27 -25 64zM664 1626q0 39 23 65q24 27 58 27q35 0 61 -27q25 -26 25 -65t-25 -64q-26 -26 -61 -26q-34 0 -58 26q-23 24 -23 64zM-23 1352h183l428 -650l413 650 h179l-523 -797v-555h-153v547z" />
<glyph unicode="&#x2c6;" horiz-adv-x="479" d="M248 1378l225 -202l6 -15l-12 -39l-14 -6l-213 125l-213 -125l-15 6l-12 39l6 15l225 202h17z" />
<glyph unicode="&#x2dc;" horiz-adv-x="636" d="M637 1358q-6 -28 -20 -56q-16 -31 -34 -51t-53 -37q-28 -14 -73 -14q-87 0 -167 14q-86 15 -151 15q-49 0 -71 -14q-20 -13 -41 -37l-27 16q7 24 23 55q17 32 35 50q20 20 54 36q31 15 74 15q56 0 89 -4q31 -4 71 -11q13 -2 64 -10q27 -4 69 -4q33 0 70 8q35 7 63 45z " />
<glyph unicode="&#x2000;" horiz-adv-x="868" />
<glyph unicode="&#x2001;" horiz-adv-x="1737" />
<glyph unicode="&#x2002;" horiz-adv-x="868" />
<glyph unicode="&#x2003;" horiz-adv-x="1737" />
<glyph unicode="&#x2004;" horiz-adv-x="579" />
<glyph unicode="&#x2005;" horiz-adv-x="434" />
<glyph unicode="&#x2006;" horiz-adv-x="289" />
<glyph unicode="&#x2007;" horiz-adv-x="289" />
<glyph unicode="&#x2008;" horiz-adv-x="217" />
<glyph unicode="&#x2009;" horiz-adv-x="347" />
<glyph unicode="&#x200a;" horiz-adv-x="96" />
<glyph unicode="&#x2010;" horiz-adv-x="995" d="M844 543v-107h-692v107h692z" />
<glyph unicode="&#x2011;" horiz-adv-x="995" d="M844 543v-107h-692v107h692z" />
<glyph unicode="&#x2012;" horiz-adv-x="995" d="M844 543v-107h-692v107h692z" />
<glyph unicode="&#x2013;" horiz-adv-x="1150" d="M999 543v-107h-847v107h847z" />
<glyph unicode="&#x2014;" horiz-adv-x="1617" d="M1466 543v-107h-1314v107h1314z" />
<glyph unicode="&#x2018;" horiz-adv-x="460" d="M340 1464l-80 -149h51v-185h-161v216l149 157z" />
<glyph unicode="&#x2019;" horiz-adv-x="419" d="M127 1169l80 150h-51v184h161v-215l-149 -158z" />
<glyph unicode="&#x201a;" horiz-adv-x="497" d="M139 -160l80 150h-51v184h162v-215l-150 -158z" />
<glyph unicode="&#x201c;" horiz-adv-x="768" d="M340 1464l-80 -149h51v-185h-161v216l149 157zM647 1464l-80 -149h51v-185h-161v216l149 157z" />
<glyph unicode="&#x201d;" horiz-adv-x="727" d="M434 1169l80 150h-51v184h162v-215l-150 -158zM127 1169l80 150h-51v184h161v-215l-149 -158z" />
<glyph unicode="&#x201e;" horiz-adv-x="827" d="M139 -160l80 150h-51v184h162v-215l-150 -158zM469 -160l80 150h-51v184h161v-215l-149 -158z" />
<glyph unicode="&#x2022;" horiz-adv-x="671" d="M197 498q0 55 40 98t99 43q29 0 52 -11q27 -13 45 -32q19 -20 31 -46q11 -23 11 -52q0 -60 -43 -99q-44 -39 -96 -39q-59 0 -99 39t-40 99z" />
<glyph unicode="&#x2026;" horiz-adv-x="1255" d="M145 72q0 38 27 68t68 30q38 0 68 -30t30 -68q0 -40 -30 -67q-31 -28 -68 -28q-40 0 -68 28q-27 27 -27 67zM532 72q0 37 28 68q27 30 67 30q38 0 68 -30t30 -68q0 -40 -30 -67q-31 -28 -68 -28q-39 0 -67 28t-28 67zM920 72q0 38 27 68t67 30q38 0 68 -30t30 -68 q0 -40 -30 -67q-31 -28 -68 -28q-39 0 -67 28q-27 27 -27 67z" />
<glyph unicode="&#x202f;" horiz-adv-x="347" />
<glyph unicode="&#x2039;" horiz-adv-x="659" d="M248 487l295 -362h-164l-273 362v11l275 362h162l-295 -362v-11z" />
<glyph unicode="&#x203a;" horiz-adv-x="659" d="M412 498l-295 362h162l274 -362v-11l-272 -362h-164l295 362v11z" />
<glyph unicode="&#x205f;" horiz-adv-x="434" />
<glyph unicode="&#x20ac;" horiz-adv-x="1275" d="M258 844q21 111 65 207q43 93 113 163t162 109t209 39q92 0 188 -24q97 -24 162 -64l-43 -148q-56 44 -135 72q-81 29 -184 29q-88 0 -154 -27t-110 -77q-42 -48 -70 -121q-27 -71 -39 -158h522v-107h-532v-108h532v-107h-524q52 -411 371 -411q113 0 201 36 q90 37 149 91l41 -138q-72 -50 -171 -87q-100 -38 -227 -38q-121 0 -214 42q-92 42 -159 116q-67 75 -107 174q-38 95 -54 215h-164v107h156v54q0 24 2 54h-158v107h172z" />
<glyph unicode="&#x2122;" horiz-adv-x="1415" d="M725 1186v-430h-78v581h98l201 -495l199 495h96v-581h-80v428l-172 -428h-92zM571 1257h-172v-501h-96v501h-172v80h440v-80z" />
<glyph unicode="&#x25fc;" horiz-adv-x="942" d="M0 942h942v-942h-942v942z" />
</font>
</defs>
</svg>
